<svg xmlns="http://www.w3.org/2000/svg" width="330" height="55" viewBox="0 0 330 55"><style>.a{fill:#63D1BB;}</style><path d="M28.3 45.7c8.8 0 16-7.2 16-16C35.4 29.7 28.3 36.8 28.3 45.7zM16.9 24.8c0 2.5 2 4.4 4.4 4.4 0.9 0 1.8-0.3 2.5-0.8v0.3c0 2.5 2 4.4 4.4 4.4s4.4-2 4.4-4.4v-0.3c0.7 0.5 1.6 0.8 2.5 0.8 2.5 0 4.4-2 4.4-4.4 0-1.8-1-3.3-2.5-4 1.5-0.7 2.5-2.2 2.5-4 0-2.5-2-4.4-4.4-4.4 -0.9 0-1.8 0.3-2.5 0.8v-0.3c0-2.5-2-4.4-4.4-4.4s-4.4 2-4.4 4.4v0.3c-0.7-0.5-1.6-0.8-2.5-0.8 -2.5 0-4.4 2-4.4 4.4 0 1.8 1 3.3 2.5 4C17.9 21.5 16.9 23 16.9 24.8zM28.3 16.3c2.5 0 4.4 2 4.4 4.4s-2 4.4-4.4 4.4 -4.4-2-4.4-4.4C23.8 18.3 25.8 16.3 28.3 16.3zM12.3 29.7c0 8.8 7.2 16 16 16C28.3 36.8 21.1 29.7 12.3 29.7z" class="a"/><path d="M101.9 13.6H63.1c-2.2 0-3.9 1.7-3.9 3.9V37c0 2.2 1.7 3.9 3.9 3.9h38.8c2.2 0 3.9-1.7 3.9-3.9V17.5C105.8 15.3 104 13.6 101.9 13.6zM62.2 38.5V16.3h40.2v22.2H62.2z" class="a"/><path d="M66.1 34.6h32.4V20.2H66.1V34.6zM82.5 22.1c2.9 0 5.3 2.4 5.3 5.3s-2.4 5.3-5.3 5.3 -5.3-2.4-5.3-5.3S79.6 22.1 82.5 22.1z" class="a"/><path d="M154 22.8c0-4.8-3.9-8.7-8.7-8.7 -3.4 0-6.3 2-7.8 4.8 -1.4-2.8-4.4-4.8-7.8-4.8 -4.8 0-8.7 3.9-8.7 8.7 0 9.1 14.7 19.1 16.5 19.1C139.4 41.9 154 32 154 22.8z" class="a"/><path d="M176.2 24.3c-0.4 2.1-0.4 4.2 0 6.3l4.1-3.2L176.2 24.3z" class="a"/><path d="M200.3 11.8c-4.8-2.2-10.4-2.1-15.3 0.4l7.5 5.6L200.3 11.8z" class="a"/><path d="M209.8 23.4l-4.8 3.7 4.9 3.7C210.4 28.4 210.4 25.9 209.8 23.4z" class="a"/><path d="M185.1 42.7c4.8 2.5 10.7 2.6 15.7 0.1l-8.1-6.1L185.1 42.7z" class="a"/><path d="M183.8 24.7l-6.2-4.7c-0.3 0.7-0.6 1.4-0.8 2.1l5.3 4L183.8 24.7z" class="a"/><path d="M194.5 35.3l8.3 6.2c0.3-0.2 0.6-0.4 0.8-0.6 0.3-0.2 0.6-0.5 0.9-0.8l-8.3-6.2L194.5 35.3z" class="a"/><path d="M187.3 21.9l-7.4-5.5c-0.5 0.6-0.9 1.1-1.3 1.7l6.9 5.2L187.3 21.9z" class="a"/><path d="M198 32.6l8.1 6.1c0.5-0.5 0.9-1.1 1.3-1.7l-7.6-5.7L198 32.6z" class="a"/><path d="M190.8 19.2l-7.7-5.8c-0.2 0.1-0.4 0.3-0.6 0.4 -0.4 0.3-0.8 0.6-1.1 1l7.7 5.7L190.8 19.2z" class="a"/><path d="M201.5 29.9l7 5.2c0.3-0.7 0.6-1.3 0.9-2l-6.1-4.5L201.5 29.9z" class="a"/><path d="M202.4 12.9l-25.6 19.9c0.2 0.7 0.5 1.4 0.8 2.1l26.5-20.7C203.6 13.8 203 13.3 202.4 12.9z" class="a"/><path d="M206.6 16.9c-0.3-0.4-0.6-0.8-0.9-1.1l-27 21c0.3 0.4 0.5 0.8 0.8 1.2 0.1 0.2 0.3 0.4 0.4 0.5L207 17.4C206.9 17.2 206.8 17 206.6 16.9z" class="a"/><path d="M208.2 19.2L181.5 40c0.5 0.5 1.1 1 1.7 1.4l26-20.2C208.9 20.6 208.6 19.9 208.2 19.2z" class="a"/><path d="M261.3 21.6c-3.6-1-7.8-1.7-12.4-1.7 -2.9 0-5.5 0.2-7.7 0.6l-6.8-4.7h-13.5l5.8 6.2h8.4c-4.6 1.6-6.8 3.5-6.8 3.5v3.8c0 0 2.3 1.9 6.9 3.5h-8.6l-5.8 6.2h13.5l6.8-4.7c2.3 0.4 4.8 0.6 7.7 0.6 4.5 0 8.7-0.7 12.4-1.7 -1.2-1.8-1.9-3.7-1.9-5.9C259.4 25.3 260.2 23.4 261.3 21.6z" class="a"/><path d="M264.8 22.6c-1.3 1.6-2 3.3-2 4.8 0 1.6 0.7 3.2 2 4.8 6.4-2.2 10.4-4.8 10.4-4.8S271.2 24.8 264.8 22.6z" class="a"/><path d="M289.3 43.5h12.5V29.6h-12.5V43.5zM317.5 19.9h-7.3c0.5-0.3 1-0.5 1.4-0.8 1.6-1.1 2.4-2.6 2.4-4 0-1.2-0.6-2.2-1.4-2.9s-1.9-1.1-3-1.1c-1.2 0-2.4 0.4-3.3 1.1 -1.5 1-2.6 2.5-3.4 4.1 0 0.1-0.1 0.2-0.1 0.2 -0.3-0.6-0.6-1.2-1-1.8 -0.7-1-1.5-1.9-2.5-2.5s-2.1-1.1-3.3-1.1c-1.2 0-2.3 0.5-3.2 1.3 -0.8 0.8-1.4 1.9-1.4 3.1 0 0.7 0.2 1.5 0.6 2.2 0.6 0.9 1.4 1.6 2.6 2.2H288c-0.9 0-1.6 0.7-1.6 1.6v5.9h15.4v-7.5h1.9v7.5h15.4v-5.9C319.1 20.6 318.4 19.9 317.5 19.9M295.1 17.5c-0.6-0.4-1-0.8-1.2-1.1 -0.2-0.4-0.3-0.7-0.3-1 0-0.5 0.2-1 0.7-1.5 0.4-0.4 1-0.7 1.6-0.7l0 0c0.7 0 1.4 0.2 2 0.7 1 0.7 2 1.9 2.6 3.2 0.3 0.7 0.6 1.4 0.8 2.1C298.3 18.9 296.3 18.3 295.1 17.5M305.7 15.9c0.6-0.8 1.2-1.5 1.9-1.9 0.7-0.5 1.4-0.7 2-0.7l0 0c0.6 0 1.1 0.2 1.5 0.6 0.4 0.3 0.6 0.7 0.6 1.2s-0.3 1.3-1.5 2.1c-1.1 0.8-3.1 1.7-6.1 2.3C304.4 18.2 304.9 17 305.7 15.9M303.7 43.5h12.5V29.6h-12.5V43.5z" class="a"/></svg>