<?xml version="1.0" encoding="utf-8"?>
<!-- Generator: Adobe Illustrator 16.2.0, SVG Export Plug-In . SVG Version: 6.00 Build 0)  -->
<!DOCTYPE svg PUBLIC "-//W3C//DTD SVG 1.1//EN" "http://www.w3.org/Graphics/SVG/1.1/DTD/svg11.dtd">
<svg version="1.1" id="Слой_1" xmlns="http://www.w3.org/2000/svg" xmlns:xlink="http://www.w3.org/1999/xlink" x="0px" y="0px"
	 width="330px" height="55px" viewBox="0 0 330 55" enable-background="new 0 0 330 55" xml:space="preserve">
<path fill="#63D1BB" d="M28.25,45.65c8.827,0,15.986-7.159,15.986-15.986C35.408,29.664,28.25,36.822,28.25,45.65z M16.892,24.779
	c0,2.451,1.988,4.441,4.439,4.441c0.933,0,1.803-0.293,2.513-0.781l-0.035,0.336c0,2.451,1.989,4.441,4.44,4.441
	s4.44-1.99,4.44-4.441l-0.036-0.336c0.719,0.496,1.582,0.781,2.514,0.781c2.451,0,4.44-1.99,4.44-4.441
	c0-1.767-1.038-3.285-2.54-3.996c1.492-0.71,2.54-2.229,2.54-3.997c0-2.451-1.989-4.44-4.44-4.44c-0.932,0-1.803,0.293-2.514,0.781
	l0.037-0.337c0-2.451-1.989-4.44-4.44-4.44s-4.44,1.99-4.44,4.44l0.036,0.337c-0.72-0.497-1.581-0.781-2.514-0.781
	c-2.451,0-4.439,1.99-4.439,4.44c0,1.768,1.039,3.286,2.54,3.997C17.931,21.494,16.892,23.012,16.892,24.779z M28.25,16.343
	c2.451,0,4.44,1.989,4.44,4.44s-1.989,4.439-4.44,4.439s-4.44-1.99-4.44-4.439C23.81,18.332,25.799,16.343,28.25,16.343z
	 M12.265,29.664c0,8.827,7.157,15.986,15.985,15.986C28.25,36.822,21.092,29.664,12.265,29.664z"/>
<path fill="#63D1BB" d="M101.881,13.584H63.115c-2.156,0-3.904,1.749-3.904,3.904V37.01c0,2.156,1.748,3.905,3.904,3.905h38.766
	c2.156,0,3.906-1.749,3.906-3.905V17.488C105.787,15.333,104.037,13.584,101.881,13.584z M62.234,38.534V16.301h40.203v22.233
	H62.234z"/>
<path fill="#63D1BB" d="M66.141,34.63h32.395V20.206H66.141V34.63z M82.5,22.104c2.936,0,5.314,2.381,5.314,5.314
	c0,2.936-2.379,5.314-5.314,5.314s-5.314-2.379-5.314-5.314S79.564,22.104,82.5,22.104z"/>
<path fill="#63D1BB" d="M154.025,22.809c0-4.825-3.912-8.736-8.736-8.736c-3.404,0-6.348,1.951-7.789,4.793
	c-1.441-2.842-4.383-4.793-7.789-4.793c-4.824,0-8.736,3.911-8.736,8.736c0,9.127,14.658,19.121,16.525,19.121
	C139.369,41.93,154.025,31.979,154.025,22.809z"/>
<g>
	<path fill="#63D1BB" d="M176.193,24.306c-0.382,2.073-0.384,4.211,0.008,6.301l4.121-3.21L176.193,24.306z"/>
	<path fill="#63D1BB" d="M200.311,11.822c-4.783-2.208-10.444-2.144-15.255,0.407l7.514,5.625L200.311,11.822z"/>
	<path fill="#63D1BB" d="M209.809,23.412l-4.812,3.748l4.937,3.695C210.43,28.41,210.396,25.867,209.809,23.412z"/>
	<path fill="#63D1BB" d="M185.116,42.651c4.844,2.534,10.724,2.649,15.729,0.112l-8.096-6.062L185.116,42.651z"/>
	<path fill="#63D1BB" d="M183.821,24.67l-6.232-4.666c-0.32,0.669-0.596,1.356-0.826,2.056l5.309,3.974L183.821,24.67z"/>
	<path fill="#63D1BB" d="M194.5,35.34l8.336,6.242c0.277-0.191,0.551-0.392,0.82-0.602c0.318-0.248,0.625-0.506,0.92-0.771
		l-8.326-6.234L194.5,35.34z"/>
	<path fill="#63D1BB" d="M187.32,21.944l-7.411-5.549c-0.462,0.551-0.885,1.127-1.27,1.723l6.932,5.189L187.32,21.944z"/>
	<path fill="#63D1BB" d="M198,32.612l8.092,6.06c0.472-0.545,0.904-1.113,1.297-1.701l-7.639-5.721L198,32.612z"/>
	<path fill="#63D1BB" d="M190.82,19.217l-7.718-5.777c-0.192,0.138-0.383,0.279-0.572,0.426c-0.396,0.309-0.773,0.632-1.137,0.968
		l7.677,5.747L190.82,19.217z"/>
	<path fill="#63D1BB" d="M201.499,29.887l6.972,5.221c0.33-0.662,0.615-1.342,0.855-2.033l-6.077-4.55L201.499,29.887z"/>
	<path fill="#63D1BB" d="M202.355,12.943l-25.568,19.92c0.233,0.698,0.513,1.387,0.839,2.059l26.521-20.663
		C203.574,13.778,202.975,13.339,202.355,12.943z"/>
	<path fill="#63D1BB" d="M206.65,16.861c-0.301-0.386-0.614-0.754-0.939-1.106l-27.018,21.049c0.262,0.402,0.542,0.797,0.843,1.183
		c0.143,0.183,0.288,0.358,0.436,0.534l27.091-21.108C206.928,17.227,206.793,17.043,206.65,16.861z"/>
	<path fill="#63D1BB" d="M208.205,19.236l-26.746,20.839c0.544,0.501,1.114,0.962,1.708,1.382l25.962-20.228
		C208.866,20.551,208.559,19.885,208.205,19.236z"/>
</g>
<g>
	<path fill="#63D1BB" d="M261.344,21.599c-3.646-0.971-7.839-1.667-12.358-1.666c-2.892,0.001-5.457,0.243-7.71,0.623l-6.784-4.668
		l-13.456,0.005l5.811,6.184h8.447c-4.58,1.599-6.759,3.516-6.759,3.516l0.002,3.776c0,0,2.313,1.912,6.931,3.519l-8.623-0.005
		l-5.811,6.188l13.455,0.002l6.815-4.691c2.262,0.397,4.822,0.646,7.682,0.647c4.521-0.001,8.712-0.697,12.359-1.667
		c-1.176-1.775-1.915-3.743-1.918-5.877C259.43,25.343,260.165,23.371,261.344,21.599z"/>
	<path fill="#63D1BB" d="M264.767,22.633c-1.283,1.604-1.969,3.25-1.965,4.84c-0.007,1.597,0.677,3.237,1.968,4.847
		c6.399-2.162,10.42-4.841,10.42-4.841S271.17,24.799,264.767,22.633z"/>
</g>
<path fill="#63D1BB" d="M289.31,43.493h12.504v-13.91H289.31V43.493z M317.492,19.873h-7.335c0.521-0.267,0.984-0.549,1.396-0.845
	c1.588-1.133,2.424-2.57,2.42-3.999c0.002-1.169-0.557-2.202-1.359-2.901c-0.805-0.704-1.869-1.119-3.016-1.121
	c-1.221-0.001-2.353,0.422-3.32,1.069c-1.459,0.979-2.606,2.451-3.424,4.067c-0.039,0.079-0.078,0.156-0.115,0.235
	c-0.299-0.623-0.647-1.226-1.041-1.792c-0.691-0.984-1.523-1.859-2.497-2.511c-0.97-0.646-2.103-1.069-3.322-1.069
	c-1.213,0.005-2.323,0.515-3.155,1.295c-0.828,0.783-1.41,1.886-1.412,3.136c-0.002,0.729,0.211,1.494,0.649,2.188
	c0.552,0.872,1.424,1.628,2.633,2.248h-6.588c-0.878,0-1.591,0.712-1.591,1.59v5.897h15.396v-7.488h1.873v7.488h15.396v-5.897
	C319.083,20.584,318.371,19.873,317.492,19.873 M295.13,17.534c-0.622-0.391-1-0.785-1.22-1.135
	c-0.22-0.354-0.294-0.662-0.296-0.963c-0.004-0.504,0.248-1.042,0.691-1.461c0.437-0.415,1.027-0.667,1.562-0.667h0.013
	c0.686,0,1.366,0.23,2.046,0.683c1.019,0.671,1.976,1.85,2.646,3.188c0.342,0.676,0.609,1.39,0.789,2.087
	C298.278,18.944,296.282,18.264,295.13,17.534 M305.667,15.907c0.557-0.797,1.21-1.466,1.887-1.916
	c0.68-0.451,1.362-0.683,2.047-0.683h0.006c0.574,0,1.117,0.22,1.494,0.55c0.377,0.336,0.571,0.739,0.573,1.171
	c-0.004,0.512-0.272,1.259-1.467,2.132c-1.138,0.825-3.101,1.673-6.127,2.265C304.37,18.225,304.927,16.954,305.667,15.907
	 M303.687,43.493h12.506v-13.91h-12.506V43.493z"/>
</svg>
