<svg id="svg4488" xmlns="http://www.w3.org/2000/svg" width="40.22" height="62.41" viewBox="0 0 40.22 62.41"><defs><style>.cls-1{fill:#149080;}</style></defs><title>icon-interior</title><path class="cls-1" d="M15.18,38a8,8,0,0,0,0,3.64c.49,2.64,1.69,6,2.36,9.67h5.06c.7-3.64,1.95-7.05,2.47-9.68a7.67,7.67,0,0,0,0-3.62,4.1,4.1,0,0,0-2-2.3h-6A4.07,4.07,0,0,0,15.18,38Z"/><path class="cls-1" d="M27,58H13.21a2.24,2.24,0,0,0-2.3,2.23v2.23h18.4V60.18A2.24,2.24,0,0,0,27,58Z"/><path class="cls-1" d="M34.14,2.23H22.41a2.3,2.3,0,0,0-4.6,0H6.07L0,27.75a5.17,5.17,0,0,1,2.63-1,4.51,4.51,0,0,1,2.92,1.37A3.16,3.16,0,0,0,7,29a3.13,3.13,0,0,0,1.45-.84,4.54,4.54,0,0,1,2.91-1.36,4.55,4.55,0,0,1,2.92,1.35,3.18,3.18,0,0,0,1.45.84,1.27,1.27,0,0,0,.58-.21,7.77,7.77,0,0,0,.87-.63,5.82,5.82,0,0,1,2-1.22,3.22,3.22,0,0,1,.93-.14A4.55,4.55,0,0,1,23,28.14a3.17,3.17,0,0,0,1.45.84,3.18,3.18,0,0,0,1.45-.85,4.54,4.54,0,0,1,2.93-1.37,4.51,4.51,0,0,1,2.92,1.37,7.74,7.74,0,0,0,.87.63,1.23,1.23,0,0,0,.57.21,3.11,3.11,0,0,0,1.44-.85,4.51,4.51,0,0,1,2.93-1.38,5.15,5.15,0,0,1,2.63,1Z"/><path class="cls-1" d="M23.52,53.49H16.66a1.11,1.11,0,1,0,0,2.23h6.9a1.11,1.11,0,1,0,0-2.23Z"/><path class="cls-1" d="M20.11,29a1.29,1.29,0,0,0-.58.21c-.16.09-.37.26-.57.41v3.73h2.3V29.63A2.65,2.65,0,0,0,20.11,29Z"/></svg>