<svg id="Layer_1" data-name="Layer 1" xmlns="http://www.w3.org/2000/svg" width="26.95" height="34.09" viewBox="0 0 26.95 34.09"><defs><style>.cls-1{fill:#46c1ae}</style></defs><title>logo-htmlacademy</title><path d="M13.62 0h-.15L0 1.41v24.66l13.47 8 13.43-8V1.41zM25 12.13l-11.51-6.8v-.1l-.09.05-.09-.06v.11L1.92 12.12v-9l11.55-1.18L25 3.15v9zM13.4 6.79l11.52 6.71-4.48 2.64-7.09-4.22v1.41l5.9 3.51-.86.51-5-3v1.41l3.83 2.28-.78.52-3-1.79v1.41l1.85 1.09-1.8 1.08L2 13.62zM1.92 15.13l11.41 6.79v1l-7.92-4.69v1.42l8 4.8v1.08l-8-4.74v1.41l8 4.82 8.14-4.87V17L25 15v10l-11.53 6.85L1.92 25z"/></svg>