<?xml version="1.0" encoding="utf-8"?>
<!-- Generator: Adobe Illustrator 16.2.0, SVG Export Plug-In . SVG Version: 6.00 Build 0)  -->
<!DOCTYPE svg PUBLIC "-//W3C//DTD SVG 1.1//EN" "http://www.w3.org/Graphics/SVG/1.1/DTD/svg11.dtd">
<svg version="1.1" id="Layer_1" xmlns="http://www.w3.org/2000/svg" xmlns:xlink="http://www.w3.org/1999/xlink" x="0px" y="0px"
	 width="26.943px" height="34.09px" viewBox="0 0 26.943 34.09" enable-background="new 0 0 26.943 34.09" xml:space="preserve">
<path fill="#46C1AE" d="M13.62,0.017L13.472,0L0,1.412v24.66l13.474,8.018l13.43-7.99l0.042-0.024V1.412L13.62,0.017z
	 M25.019,12.127L13.495,5.334L13.494,5.23l-0.087,0.05l-0.088-0.056v0.109L1.925,12.118V3.147l11.549-1.212L25.02,3.147
	L25.019,12.127L25.019,12.127z M13.405,6.787L24.923,13.5l-4.479,2.64l-7.093-4.221l-0.015,1.415l5.904,3.513l-0.86,0.507
	l-5.029-2.992l-0.015,1.415l3.827,2.276l-0.782,0.522l-3.03-1.787l-0.015,1.413l1.854,1.091l-1.8,1.081L2.034,13.622L13.405,6.787z
	 M1.925,15.127l11.411,6.791l0.017,1.044L5.41,18.234L5.395,19.65l7.979,4.795l0.019,1.076l-7.974-4.74l-0.013,1.414l8.021,4.822
	l0.047,0.024l8.143-4.872l-0.011-5.177l3.415-2.036v10.021L13.472,31.85L1.925,24.979V15.127z"/>
</svg>
