<?xml version="1.0" encoding="utf-8"?>
<!-- Generator: Adobe Illustrator 21.1.0, SVG Export Plug-In . SVG Version: 6.00 Build 0)  -->
<svg version="1.1" id="Layer_1" xmlns="http://www.w3.org/2000/svg" xmlns:xlink="http://www.w3.org/1999/xlink" x="0px" y="0px"
	 width="32px" height="42px" viewBox="0 0 32 42" style="enable-background:new 0 0 32 42;" xml:space="preserve">
<style type="text/css">
	.st0{fill:#CCCCCC;}
	.st1{fill:#63D1BB;}
</style>
<path id="mail" class="st0" d="M28,0H4C1.8,0,0,1.8,0,4v13c0,2.2,1.8,4,4,4h24c2.2,0,4-1.8,4-4V4C32,1.8,30.2,0,28,0z M2,5.3l7,5.3
	l-7,5.3V5.3z M30,17c0,1.1-0.9,2-2,2H4c-1.1,0-2-0.9-2-2l7.8-5.9l4.4,3.3c0.5,0.4,1.2,0.6,1.8,0.6c0.6,0,1.3-0.2,1.8-0.6l4.4-3.3
	L30,17L30,17z M30,15.8l-7-5.3l7-5.3V15.8z M17.2,13.6C16.9,13.9,16.5,14,16,14c-0.4,0-0.9-0.1-1.2-0.4l-4.1-3.1L9.9,9.9L2,4v0
	c0-1.1,0.9-2,2-2h24c1.1,0,2,0.9,2,2L17.2,13.6z"/>
<path id="mail_1_" class="st1" d="M28,21H4c-2.2,0-4,1.8-4,4v13c0,2.2,1.8,4,4,4h24c2.2,0,4-1.8,4-4V25C32,22.8,30.2,21,28,21z
	 M2,26.3l7,5.3l-7,5.2V26.3z M30,38c0,1.1-0.9,2-2,2H4c-1.1,0-2-0.9-2-2l7.8-5.9l4.4,3.3c0.5,0.4,1.2,0.6,1.8,0.6
	c0.6,0,1.3-0.2,1.8-0.6l4.4-3.3L30,38L30,38z M30,36.8l-7-5.2l7-5.3V36.8z M17.2,34.6C16.9,34.9,16.5,35,16,35
	c-0.4,0-0.9-0.1-1.2-0.4l-4.1-3.1l-0.8-0.6L2,25v0c0-1.1,0.9-2,2-2h24c1.1,0,2,0.9,2,2L17.2,34.6z"/>
</svg>
