<svg id="Layer_1" data-name="Layer 1" xmlns="http://www.w3.org/2000/svg" width="32" height="42" viewBox="0 0 32 42"><defs><style>.cls-1{fill:#ccc;}.cls-2{fill:#63d1bb;}</style></defs><title>mail-sprite</title><path id="mail" class="cls-1" d="M28,0H4A4,4,0,0,0,0,4V17a4,4,0,0,0,4,4H28a4,4,0,0,0,4-4V4A4,4,0,0,0,28,0ZM2,5.3l7,5.3L2,15.9ZM30,17a2,2,0,0,1-2,2H4a2,2,0,0,1-2-2l7.8-5.9,4.4,3.3a3,3,0,0,0,3.6,0l4.4-3.3L30,17Zm0-1.2-7-5.3,7-5.3ZM17.2,13.6A1.59,1.59,0,0,1,16,14a1.75,1.75,0,0,1-1.2-.4l-4.1-3.1-.8-.6L2,4H2A2,2,0,0,1,4,2H28a2,2,0,0,1,2,2Z"/><path id="mail-2" data-name="mail" class="cls-2" d="M28,21H4a4,4,0,0,0-4,4V38a4,4,0,0,0,4,4H28a4,4,0,0,0,4-4V25A4,4,0,0,0,28,21ZM2,26.3l7,5.3L2,36.8ZM30,38a2,2,0,0,1-2,2H4a2,2,0,0,1-2-2l7.8-5.9,4.4,3.3a3,3,0,0,0,3.6,0l4.4-3.3L30,38Zm0-1.2-7-5.2,7-5.3ZM17.2,34.6A1.59,1.59,0,0,1,16,35a1.75,1.75,0,0,1-1.2-.4l-4.1-3.1-.8-.6L2,25H2a2,2,0,0,1,2-2H28a2,2,0,0,1,2,2Z"/></svg>