<svg id="Слой_1" data-name="Слой 1" xmlns="http://www.w3.org/2000/svg" width="83.87" height="57.83" viewBox="0 0 83.87 57.83"><defs><style>.cls-1{fill:#231f20;}.cls-2{fill:#46c1ae;}</style></defs><title>social-sprite</title><g id="instagram"><path class="cls-1" d="M26.63,16.32c0-2.4-.34-4.79-.3-7.13,0-.79-.09-1.53-.15-2.28A5.39,5.39,0,0,1,26,5.84c-.26-.17-.22-.64-.46-.83a7.37,7.37,0,0,0-1.74-.22c-.66,0-1.26-.12-1.9-.15-1.94-.1-4-.08-6-.08a43.3,43.3,0,0,1-5.7-.38H8c-.1,0-.11.1-.23.08a9.2,9.2,0,0,0-1.6.3,2.8,2.8,0,0,1-.68.3c-.14.19-.51.15-.61.38s.19.45,0,.61v.91c.17.13,0,.58.07.83v1c0,1.28.13,2.4.08,3.72a38.72,38.72,0,0,1,.08,9.41,14.45,14.45,0,0,1,.45,1.75A7.63,7.63,0,0,0,6.29,25a6.77,6.77,0,0,0,1.9.23,4.23,4.23,0,0,0,1.14.3c2.84-.21,5.5-.15,8.43-.23A34.61,34.61,0,0,0,26,25.05c.19-.14.13-.53.23-.76-.06-.39.21-.45.23-.76C26.61,21.14,26.65,18.74,26.63,16.32Zm-13-6.23a9.46,9.46,0,0,1,2.43-.3,10.71,10.71,0,0,1,1.9.45c.11.18-.24.55.15.68V11c.06,0,.15,0,.15.08a1.92,1.92,0,0,1,1.06.38c.45.06.54.48,1.14.3a2.16,2.16,0,0,0-.08.83,11.89,11.89,0,0,1,.3,4.25,1.87,1.87,0,0,0-.3.68c-.31.32-.48.78-.84,1.06a1.08,1.08,0,0,1-.45.53c-.12.21-.21.45-.46.53s-.58,0-.83-.08a3.48,3.48,0,0,0-1.22.61c-.82-.1-1.65-.18-2.43-.31a1.94,1.94,0,0,0-.84-.31,2,2,0,0,0-.84-.45c-.1-.13-.34-.12-.45-.23s-.23-.23-.46-.23c-.12-.41-.44-.62-.53-1.06a5.45,5.45,0,0,1-.45-1.22,13.43,13.43,0,0,1,.38-3.8c.35-.59.78-1.09,1.14-1.67.25,0,.36-.09.38-.3.31.05.44-.07.69-.08S13.46,10.23,13.65,10.09ZM12,7.36a3.29,3.29,0,0,1-.07-1.06c0-.28.28-.28.3-.53,0-.07-.09-.06-.15-.08.13-.15.7-.1.83,0,.13.54-.35.45-.53.68,0,.17.32,0,.46.08,0,.85-.06,1.5,0,2.2h-.46c0,.23.23.23.46.23-.06.29.09.36.07.61-.23.15-.72,0-1.06.07C11.73,9,12.07,8.19,12,7.36ZM11.3,5.76c.09,0,.14,0,.15.08.18.25,0,.68-.08.91C11.2,6.57,11.35,6.07,11.3,5.76Zm.15,1.82c-.13-.07-.17-.24-.15-.46C11.43,7.2,11.47,7.37,11.45,7.59Zm0,1.37c-.06.14-.08,0-.08-.15S11.46,8.85,11.45,9Zm-.15.23c.18,0,.08.22.23.23,0,.19-.28.18-.38.08S11.26,9.29,11.3,9.18ZM8.94,8c0-.11,0-.22-.08-.23-.07-.73.13-1.41,0-2,.25-.16.77,0,1.14-.08V6.83a.5.5,0,0,1-.38.08c-.05.28.32.13.38.3a9.35,9.35,0,0,0,.15,2.43c-.56-.06-.91.11-1.44.08.1-.61,0-1.43.53-1.59C9.24,8,9,8.07,8.94,8ZM8.41,8c-.2,0-.22-.53-.08-.61C8.66,7.36,8.59,7.86,8.41,8ZM8.26,9a3.66,3.66,0,0,0,.07-.68C8.56,8.28,8.6,9,8.26,9ZM8.49,6.9c-.26.05-.27-.27-.15-.38S8.61,6.79,8.49,6.9Zm0-1.14c0,.16-.05.2-.08.3-.18,0-.08-.22-.23-.23C8.21,5.74,8.38,5.78,8.49,5.76ZM8.26,9.48c.15,0,.11.35-.07.23A.36.36,0,0,0,8.26,9.48ZM7.58,5.76c0,.26-.44.32-.38,0Zm-1,.08c0,.22-.33.18-.38.38C6,6,6.3,5.75,6.59,5.84Zm-.45.76c.23-.2.45-.41.68-.61,0-.12.07-.13.07-.23h.23c.1.38-.26.3-.3.53s-.07.13-.07.23a4.57,4.57,0,0,1,.07,1c-.27,0-.28.28-.61.23A11.31,11.31,0,0,1,6.14,6.6Zm.08,3.27V8.27c.2-.19.4-.36.61-.53.3.49.18,1.39.45,1.9C7,9.79,6.52,9.75,6.21,9.86ZM24.43,20.95a21.08,21.08,0,0,1-.38,2.81c-2.89.12-6,0-8.88.15-.2,0-.27,0-.23-.23-.25,0-.26.25-.53.23.2-.34.44-.9.15-1.29-.8,0-.8.82-1.14,1.29-.69-.06-1.14.13-1.82.07.18-.7.75-1,.91-1.75-.4-.55-1,.14-1.21.45-.2.48-.56.81-.76,1.29h-1c.24-.47.49-.93.76-1.36s.63-.74.68-1.37c-.16-.28-.42,0-.68,0-.12.18-.27.33-.38.53a8.75,8.75,0,0,0-.69,1.14c-.18.21-.34,0-.53.23-.39.27-.58.74-1,1-.17-.06,0-.36.15-.38,0-.18-.1-.55.07-.61a2.42,2.42,0,0,1,.38-.91c.12-.74.52-1.2.69-1.9-.56.1-.68.64-1,1a7.28,7.28,0,0,0-.68,1.29c-.18-.13,0-.58-.08-.84.12-.59.3-1.12.38-1.75a2.61,2.61,0,0,0,.23-.83.72.72,0,0,0-.08-.76.54.54,0,0,0-.45.31c-.19,0-.19.51-.3.31,0-2.59-.45-4.81-.46-7.44,0-.33-.18-.42-.23-.69,1.63,0,3.12.09,4.78.23a3.22,3.22,0,0,1-.31.38,1.85,1.85,0,0,0-.38.31A12.66,12.66,0,0,0,9.86,18a4.42,4.42,0,0,0,1,1.44c.91.49,1.64,1.15,2.51,1.67a14.16,14.16,0,0,0,5.54,0,4.57,4.57,0,0,0,.68-.38c1.36-1.24,2.75-2.46,3-4.86V14.5a4.93,4.93,0,0,0-1.75-3.65c.33-.22,1.1,0,1.67.08a5.8,5.8,0,0,0,.68,0,8.76,8.76,0,0,1,1.44,0c.15.19.11.54.23.76-.06,1.68-.19,3.3-.15,5.09.1.45.13,1,.23,1.44A17.56,17.56,0,0,1,24.43,20.95Zm.38-11.16c-.64-.12-1.23-.28-1.9-.38.07-.33.8,0,1-.23.39-.22.3-.92.3-1.51a5.06,5.06,0,0,0,.08-1.06c-.4-1-1.78-.42-2.89-.45a6,6,0,0,0-.31,2.66c.17.49,1,.29,1.52.46-.14.33-.69.06-1,.08s-.71-.05-1-.15c-2.28.08-4.28,0-6.53.15A17.27,17.27,0,0,0,14,5.7h3.11c-.34.36-.91.51-1.29.84a3.18,3.18,0,0,0-1.14.91c.25.13.53-.24.76-.38s.48-.38.83-.45A5.93,5.93,0,0,1,18,5.7a3.53,3.53,0,0,1,1,.08c1.28,0,2.45.13,3.8.08a12.87,12.87,0,0,1,2,.3,7.66,7.66,0,0,1,.31.91A26.39,26.39,0,0,1,24.81,9.79ZM19,6.07c.11,0,0-.09,0,0Zm0,0a3.25,3.25,0,0,0-1.37.68A3.34,3.34,0,0,0,19,6.07ZM20,6.67c.11,0,0-.09,0,0Zm-1.75.91A6,6,0,0,0,20,6.67c-.44,0-.59.32-1,.38C18.83,7.27,18.44,7.31,18.28,7.59Zm-.68-.84c-.11,0,0,.09,0,0Zm-.68.61c.11,0,0-.09,0,0Zm-.08.08c.06,0,.07,0,.08-.08S16.84,7.39,16.84,7.43Zm-.08.08c.06,0,.07,0,.08-.08S16.77,7.46,16.77,7.51Zm-.83.61a2.07,2.07,0,0,0,.83-.61A2,2,0,0,0,15.93,8.12Zm2.28,1c.53,0,.75-.42,1.22-.53.28-.3.78-.38,1-.76-.56,0-.77.4-1.22.53C18.91,8.64,18.44,8.76,18.21,9.1Zm-2.28-1c-.32-.07,0,.23,0,0Zm-.53.38s.11,0,.08-.08S15.36,8.46,15.4,8.5Zm2.81.61c-.11,0,0,.09,0,0Zm-1.14,1.82c-.22-.23-.68-.23-1-.38a5.29,5.29,0,0,0-1.75.23l-.91.45a4.05,4.05,0,0,1-.76.53c-.2.23-.35.51-.68.61,0,.22-.17.28-.31.38s-.09.31-.23.38,0,.29-.08.3a18.27,18.27,0,0,0,.68,4.18c.29.62,1,.85,1.44,1.29a6.35,6.35,0,0,0,2.13.53,3.15,3.15,0,0,1,.91-.08,5.09,5.09,0,0,0,2.81-1.44,1.61,1.61,0,0,1,.45-.68c-.25-.67.29-1.1.45-1.59a8.54,8.54,0,0,0-.61-3.42c-.26-.58-.92-.75-1.37-1.14-.06,0-.15,0-.15-.08A1.34,1.34,0,0,0,17.07,10.93Zm-3.41,4.33c-.11-.06-.11-.24-.15-.38C13.76,14.8,13.62,15.11,13.65,15.25Zm.08.3c0-.12.08,0,.07.08S13.73,15.64,13.73,15.56Zm.46-2.05c0-.09.07,0,.07,0S14.19,13.55,14.19,13.51Zm1.67-2.12c-.2.26,0,.58.08.84C15.63,12.18,15.36,11.33,15.85,11.38Zm.38,4s.06-.1.08-.08S16.25,15.35,16.23,15.33ZM17,18.21c0-.11.07,0,.15,0A.08.08,0,0,1,17,18.21Zm2.2-2.58c-.23-.06-.15.21-.38.15a1.48,1.48,0,0,1,.23-.45C19.18,15.35,19.22,15.46,19.19,15.63Zm-1.14-3.8a2.77,2.77,0,0,1,.6.38,1.93,1.93,0,0,0,.38.53,20.12,20.12,0,0,1,.15,2.35c-.26.1-.44.27-.68.38a4.44,4.44,0,0,1-1.9-.45c-.17-.26-.35-.51-.53-.76V13.2a4.39,4.39,0,0,0,.46-.61c.23-.13.51-.2.45-.61a.37.37,0,0,1-.08-.23,1.89,1.89,0,0,1,.38.23C17.62,12,17.7,11.79,18.06,11.84Z" transform="translate(-4.87 -1.02)"/></g><g id="facebook"><path class="cls-1" d="M50.47,6.22a6.69,6.69,0,0,0,2.68-.3,8.08,8.08,0,0,0,.62-3c-.19,0-.06-.34-.21-.4s-.28-.19-.31-.4c-.28-.16-.46-.42-.72-.6L50.37,1a13.29,13.29,0,0,0-2.58.1,6.62,6.62,0,0,0-5.26,2.39c0,.08,0,.2-.1.2-.57,1.59-.12,3.62-.2,5.58.1.44.11,1,.2,1.39a18.67,18.67,0,0,1-3.4.5c-.32.32-.18,1.09-.21,1.69a15,15,0,0,0,.41,1.6,3.58,3.58,0,0,0,.83.5c.06,0,.07.08.1.1.51.27,1.45,0,2.27.1-.14,2,.26,3.91,0,5.68,0,.33.29.38.21.8a8.27,8.27,0,0,0,.21,2.69,2.62,2.62,0,0,0-.42,1.79c.12,0,.11.16.1.3-.07.47.64.18.52.7.16.45-.43.18-.41.5v.9a6,6,0,0,0,2.27.2c.91-.42,2.19-.48,2.79-1.19a1.28,1.28,0,0,0,1.24-.2c0-.31.27-.33.21-.7s-.17-.5-.1-.9V22.86c-.21-2.29,0-4.94-.31-7.18a9,9,0,0,0,2.58-.4,4.89,4.89,0,0,0,.52-1.89,1.55,1.55,0,0,0,.21-1c.19-.21.07-.73.1-1.1C52,10.7,52,10,51.3,9.91c-.88-.23-2,.6-3,.3,0-1.13-.29-2.34,0-3.39C49.05,6.64,49.75,6.42,50.47,6.22ZM46.65,11a3.8,3.8,0,0,0,.41.7c.08,0,.2,0,.21.1a10.32,10.32,0,0,0,3.1-.3A7.46,7.46,0,0,1,49.85,14a10,10,0,0,1-2,.2c-.28.16-.37.51-.62.7,0,.44.14.49,0,.8-.2.14-.06.61-.21.8V18c.08.28-.15.26-.1.5V22c-.08.28.15.26.1.5v3c.06.27-.13.79.1.9-.07.36-.41,0-.82.1a7.62,7.62,0,0,1-1.55.4,2.84,2.84,0,0,0,.31-1.1c0-.38-.37-.31-.52-.49.19-.64.56-1.12.72-1.79.2-.51.71-1.3.31-1.79-.52-.1-.52.29-.83.4,0,.08,0,.19-.1.2s0,.2-.1.2-.15.06,0,0,0-.19.1-.2,0-.19.1-.2v-.3a5.68,5.68,0,0,0,.83-2,4.82,4.82,0,0,0,.41-1,1.29,1.29,0,0,0,.1-1.19,1,1,0,0,0-.93.7c-.32-.19.16-.44.1-.7.14-.23.17-.57.31-.8.2-.41.56-1.31,0-1.6a.66.66,0,0,0-.72.5,1.45,1.45,0,0,0-.52.7c-.37-.07-.14-.73-.21-1.1s.12-.9,0-1.19c-.56-.8-2-.1-3.2-.3a2.25,2.25,0,0,1-.1-1.19c1-.09,2.48.2,3.2-.2,0-.08,0-.2.1-.2.09-.72-.27-1-.52-1.4a17.08,17.08,0,0,0,.1-3c.23-.14.33-.41.51-.6.11-1,.67-1.48.72-2.49-.27,0-.61-.06-.62.2-.3-.11-.38.48-.52.2-.11-.54.25-.63.31-1,.6-.42,1.21-.82,1.86-1.2,1.74-.24,4.65-.45,6.09.2.05.62-.29.85-.21,1.5H50.37a30.28,30.28,0,0,0-3,1c-.24.07-.28.33-.52.4a6,6,0,0,1-.31,1C46.47,8.45,46.68,9.61,46.65,11Z" transform="translate(-4.87 -1.02)"/></g><g id="twitter"><path class="cls-1" d="M88.7,8.26c-.23-.37-.91-.28-1.41-.37H86.18a8.42,8.42,0,0,1,.52-1,5.46,5.46,0,0,0,.22-1.26c.13-.17.18-.42.29-.59s.24-.48.07-.67-.29-.25-.59-.22a.5.5,0,0,0-.22.15c-.45.43-.78,1-1.26,1.41h-.07c-.09,0,0,0-.07.07L84.7,6a3,3,0,0,1-.89.52A6.07,6.07,0,0,0,82,6.18a6.44,6.44,0,0,0-3,.74,7.34,7.34,0,0,0-2.15,1.63c0,.32-.34.4-.37.74,0,0,0,.09-.07.07,0,.24-.05.35-.07.52s.2.43,0,.52a7.13,7.13,0,0,1-2.15-1A10.14,10.14,0,0,1,72,8.33,6,6,0,0,1,70.25,7c-.21-.31-.54-.5-.67-.89-.38-.16-.18-.91-.74-.89-.32,0-.35.2-.44.37s-.36.23-.37.52c0,0,0,.09-.07.07a17.9,17.9,0,0,0-.52,3.26,3.09,3.09,0,0,0,.59,1,1.11,1.11,0,0,0-.89.52,3.71,3.71,0,0,0,.74,2.3,2.94,2.94,0,0,0,.59,1c0,.23.21.29.3.44s.12.13.15.22.29.18.07.22c-.41.13-1,.07-1.26.37a1.93,1.93,0,0,0,0,1.11c0,.24.28.26.3.52a18.48,18.48,0,0,0,1.63,1.11,14.89,14.89,0,0,0,1.85.37,1.43,1.43,0,0,1-.59.74,19.25,19.25,0,0,1-2.74.74c-.56,0-1,.23-1.56.22-.33.13-.85.07-1.11.22s-.1.1-.22.22a.72.72,0,0,0,.44.89c0,.25.22.27.37.37a.79.79,0,0,0,.44.37,10.47,10.47,0,0,0,1.93,1.11c.83.18,1.65.38,2.52.52s1.9.13,2.82.22h1a9.7,9.7,0,0,0,1.85.07c.1-.1.32-.07.52-.07a9.52,9.52,0,0,0,1.63-.74c.57-.24,1-.64,1.56-.89a10,10,0,0,0,2.52-2.37,1.64,1.64,0,0,0,.44-.74c.26-.16.39-.45.59-.67a10.26,10.26,0,0,0,1-1.4c.32-.5.58-1.06.89-1.56,0-.4.31-.48.3-.89.19-.23.18-.66.37-.88a1.38,1.38,0,0,1,.07-.59,12.15,12.15,0,0,0-.3-3.41,5.72,5.72,0,0,0,1.63-.59C88.41,9.33,88.88,8.93,88.7,8.26Zm-3.41,4.08a4.72,4.72,0,0,1-1,2c.06.38-.1.54-.07.89a4.32,4.32,0,0,0-.37,1c-.2.27-.33.61-.52.89-.37.55-.78,1.05-1.19,1.56s-.91,1-1.33,1.48-.94.89-1.41,1.33a4.9,4.9,0,0,0-1.26.67,5,5,0,0,0-.67.3c-.18.15-.5.15-.67.29a24.13,24.13,0,0,1-3.56.15,26.44,26.44,0,0,1-3-.37,11.86,11.86,0,0,1-2.3-1c.15-.24.64-.15,1-.22,0-.17.39,0,.44-.15.26.06.29-.11.52-.07a9.58,9.58,0,0,0,1.71-.59c.28-.14.4-.44.67-.59a.72.72,0,0,1,.22-.44c0-.27.2-.44.15-.82.11-.21.3-.34.29-.67-.07-.15-.13-.32-.29-.37s-.38-.07-.44-.22a1.37,1.37,0,0,1-.59-.07c-.15,0-.49.09-.52-.07a3.61,3.61,0,0,1-1.85-.74c.43-.26,1-.35,1.33-.74.52-.08,1.06-.13,1.11-.67,0-.72-.77-.66-1.33-.82a12.15,12.15,0,0,1-1.78-2.52c.24-.16.56-.23.74-.44.45.06.54-.25.67-.52,0-.49-.33-.6-.59-.81a3.44,3.44,0,0,1-.67-.74,18.58,18.58,0,0,1,.07-2.37c.06,0,.07,0,.07.07.23.44.56.77.82,1.19a8.8,8.8,0,0,0,1.56,1.11c.45.41,1.11.62,1.56,1a16.32,16.32,0,0,1,1.7.89c.67.19,1.06.67,2,.59l.59-.3c.26-.46-.06-1.08.15-1.63a4.33,4.33,0,0,1,1.26-1.48,7.85,7.85,0,0,0,.82-.52,5,5,0,0,0,1-.37,6.32,6.32,0,0,0,1-.15h1.26a7.18,7.18,0,0,0,.74.15,1.83,1.83,0,0,0,.67.37,4.47,4.47,0,0,1,1.41,3A11.08,11.08,0,0,0,85.29,12.33Zm.3-5.63c-.13.34-.23.71-.59.81,0-.1-.12-.12-.15-.22s.21-.19.29-.3.25-.25.44-.3C85.58,6.61,85.69,6.65,85.58,6.7Zm-5.48,3a1.32,1.32,0,0,0,.52.37.71.71,0,0,0,.6.37c0-.15.35,0,.37-.22.17,0,.17-.23.3-.3a2.36,2.36,0,0,0-.37-1.33A.93.93,0,0,0,80.1,9.74Z" transform="translate(-4.87 -1.02)"/></g><g id="instagram-2" data-name="instagram"><path class="cls-2" d="M26.63,46.42c0-2.4-.34-4.79-.3-7.13,0-.79-.09-1.53-.15-2.28A5.39,5.39,0,0,1,26,35.95c-.26-.17-.22-.64-.46-.83a7.37,7.37,0,0,0-1.74-.22c-.66,0-1.25-.12-1.9-.15-1.94-.1-4-.08-6-.08a43.3,43.3,0,0,1-5.7-.38H8c-.1,0-.11.1-.23.08a9.2,9.2,0,0,0-1.6.3,2.84,2.84,0,0,1-.68.3c-.14.19-.51.15-.61.38s.19.45,0,.61v.91c.17.13,0,.58.07.83v1c0,1.28.13,2.4.08,3.72a38.72,38.72,0,0,1,.08,9.42,14.45,14.45,0,0,1,.45,1.75,7.63,7.63,0,0,0,.68,1.52,6.77,6.77,0,0,0,1.9.23,4.23,4.23,0,0,0,1.14.3c2.84-.21,5.5-.15,8.43-.23A34.61,34.61,0,0,0,26,55.16c.19-.13.13-.53.23-.76-.06-.39.21-.45.23-.76C26.61,51.25,26.65,48.85,26.63,46.42Zm-13-6.23a9.46,9.46,0,0,1,2.43-.3,10.71,10.71,0,0,1,1.9.46c.11.18-.24.55.15.68v.08c.06,0,.15,0,.15.08a1.92,1.92,0,0,1,1.06.38c.45.06.54.48,1.14.3a2.16,2.16,0,0,0-.08.83,11.89,11.89,0,0,1,.3,4.25,1.87,1.87,0,0,0-.3.68c-.31.32-.48.78-.84,1.06a1.08,1.08,0,0,1-.45.53c-.12.21-.21.45-.46.53s-.58,0-.83-.08a3.48,3.48,0,0,0-1.22.61c-.82-.1-1.65-.18-2.43-.31a1.94,1.94,0,0,0-.84-.31,2,2,0,0,0-.84-.46c-.1-.13-.34-.12-.45-.23s-.23-.23-.46-.23c-.12-.41-.44-.62-.53-1.06a5.45,5.45,0,0,1-.45-1.22,13.43,13.43,0,0,1,.38-3.8c.35-.59.78-1.09,1.14-1.67.25,0,.36-.09.38-.3.31.05.44-.07.69-.08S13.46,40.34,13.65,40.2ZM12,37.47a3.29,3.29,0,0,1-.07-1.06c0-.28.28-.28.3-.53,0-.07-.09-.06-.15-.08.13-.15.7-.1.83,0,.13.54-.35.46-.53.68,0,.17.32,0,.46.08,0,.85-.06,1.5,0,2.2h-.46c0,.23.23.23.46.23-.06.29.09.36.07.61-.23.15-.72,0-1.06.08C11.73,39.07,12.07,38.29,12,37.47Zm-.68-1.59c.09,0,.14,0,.15.08.18.25,0,.68-.08.91C11.2,36.68,11.35,36.18,11.3,35.87Zm.15,1.82c-.13-.07-.17-.24-.15-.46C11.43,37.31,11.47,37.48,11.45,37.69Zm0,1.37c-.06.14-.08,0-.08-.15S11.46,39,11.45,39.06Zm-.15.23c.18,0,.08.22.23.23,0,.19-.28.18-.38.08S11.26,39.4,11.3,39.29ZM8.94,38.07c0-.11,0-.22-.08-.23-.07-.73.13-1.42,0-2,.25-.15.77,0,1.14-.08v1.14a.5.5,0,0,1-.38.08c-.05.28.32.13.38.31a9.35,9.35,0,0,0,.15,2.43c-.56-.06-.91.11-1.44.08.1-.61,0-1.44.53-1.59C9.24,38.08,9,38.18,8.94,38.07Zm-.53,0c-.2,0-.22-.53-.08-.61C8.66,37.47,8.59,38,8.41,38.07Zm-.15,1a3.66,3.66,0,0,0,.07-.68C8.56,38.39,8.6,39.15,8.26,39.06ZM8.49,37c-.26.06-.27-.27-.15-.38S8.61,36.9,8.49,37Zm0-1.14c0,.16-.05.2-.08.3-.18,0-.08-.22-.23-.23C8.21,35.85,8.38,35.88,8.49,35.87Zm-.23,3.72c.15,0,.11.35-.07.23A.36.36,0,0,0,8.26,39.59Zm-.68-3.72c0,.26-.44.32-.38,0Zm-1,.08c0,.22-.32.18-.38.38C6,36.16,6.3,35.86,6.59,35.95Zm-.45.76c.23-.21.45-.41.68-.61,0-.12.07-.13.08-.23h.23c.1.38-.26.3-.3.53s-.07.13-.07.23a4.57,4.57,0,0,1,.07,1c-.27,0-.28.28-.61.23A11,11,0,0,1,6.14,36.71ZM6.21,40V38.38c.2-.19.4-.36.61-.53.3.49.18,1.39.45,1.9C7,39.9,6.52,39.85,6.21,40ZM24.43,51.06a21.08,21.08,0,0,1-.38,2.81c-2.89.12-6,0-8.88.15-.2,0-.27,0-.23-.23-.25,0-.26.25-.53.23.2-.34.44-.9.15-1.29-.8,0-.8.82-1.14,1.29-.69-.06-1.14.13-1.82.07.18-.71.75-1,.91-1.75-.4-.55-1,.14-1.21.46-.2.48-.56.81-.76,1.29h-1c.24-.47.49-.93.76-1.37s.63-.74.68-1.37c-.16-.28-.42,0-.68,0-.12.18-.27.33-.38.53A8.75,8.75,0,0,0,9.25,53c-.18.21-.34,0-.53.23-.39.27-.58.74-1,1-.17-.06,0-.36.15-.38,0-.18-.1-.55.07-.61a2.42,2.42,0,0,1,.38-.91c.12-.74.52-1.2.69-1.9-.56.1-.68.64-1,1a7.28,7.28,0,0,0-.68,1.29c-.18-.13,0-.58-.08-.84.12-.59.3-1.12.38-1.75a2.61,2.61,0,0,0,.23-.83.72.72,0,0,0-.08-.76.54.54,0,0,0-.45.31c-.19,0-.19.51-.3.31,0-2.59-.45-4.81-.46-7.44,0-.33-.18-.42-.23-.69,1.63,0,3.12.09,4.78.23a3.22,3.22,0,0,1-.31.38,1.85,1.85,0,0,0-.38.31,12.66,12.66,0,0,0-.61,6.15,4.42,4.42,0,0,0,1,1.44c.91.49,1.64,1.15,2.51,1.67a14.16,14.16,0,0,0,5.54,0,4.57,4.57,0,0,0,.68-.38c1.36-1.24,2.75-2.46,3-4.86V44.61A4.93,4.93,0,0,0,20.79,41c.33-.22,1.1,0,1.67.08a5.8,5.8,0,0,0,.68,0,8.76,8.76,0,0,1,1.44,0c.15.19.11.54.23.76-.06,1.68-.19,3.3-.15,5.09.1.46.13,1,.23,1.44A17.57,17.57,0,0,1,24.43,51.06Zm.38-11.16c-.64-.12-1.23-.28-1.9-.38.07-.33.8,0,1-.23.39-.22.3-.92.3-1.51a5.06,5.06,0,0,0,.08-1.06c-.4-1-1.78-.42-2.89-.46a6,6,0,0,0-.31,2.66c.17.49,1,.29,1.52.46-.14.33-.69.06-1,.08s-.71-.05-1-.15c-2.28.08-4.28,0-6.53.15A17.27,17.27,0,0,0,14,35.8h3.11c-.34.36-.91.51-1.29.83a3.18,3.18,0,0,0-1.14.91c.25.13.53-.24.76-.38s.48-.38.83-.46A5.93,5.93,0,0,1,18,35.8a3.53,3.53,0,0,1,1,.08c1.28,0,2.46.13,3.8.08a12.87,12.87,0,0,1,2,.3,7.66,7.66,0,0,1,.31.91A26.66,26.66,0,0,1,24.81,39.9ZM19,36.18c.11,0,0-.09,0,0Zm0,0a3.25,3.25,0,0,0-1.37.68A3.34,3.34,0,0,0,19,36.18Zm1.06.61c.11,0,0-.09,0,0Zm-1.75.91A6,6,0,0,0,20,36.78c-.44,0-.59.32-1,.38C18.83,37.38,18.44,37.42,18.28,37.69Zm-.68-.84c-.11,0,0,.09,0,0Zm-.68.61c.11,0,0-.09,0,0Zm-.08.08c.06,0,.07,0,.08-.08S16.84,37.5,16.84,37.54Zm-.08.08c.06,0,.07,0,.08-.08S16.77,37.57,16.77,37.62Zm-.83.61a2.07,2.07,0,0,0,.83-.61A2,2,0,0,0,15.93,38.23Zm2.28,1c.53,0,.75-.42,1.22-.53.28-.3.78-.38,1-.76-.56,0-.77.4-1.22.53C18.91,38.75,18.44,38.87,18.21,39.21Zm-2.28-1c-.32-.08,0,.23,0,0Zm-.53.38s.11,0,.08-.08S15.36,38.56,15.4,38.6Zm2.81.61c-.11,0,0,.09,0,0ZM17.07,41c-.22-.23-.68-.23-1-.38a5.29,5.29,0,0,0-1.75.23l-.91.45a4.05,4.05,0,0,1-.76.53c-.2.22-.35.51-.68.61,0,.22-.17.28-.31.38s-.09.31-.23.38,0,.29-.08.3a18.29,18.29,0,0,0,.68,4.18c.29.62,1,.85,1.44,1.29a6.35,6.35,0,0,0,2.13.53,3.15,3.15,0,0,1,.91-.08A5.09,5.09,0,0,0,19.34,48a1.61,1.61,0,0,1,.45-.68c-.25-.67.29-1.1.45-1.59a8.54,8.54,0,0,0-.61-3.42c-.26-.58-.92-.75-1.37-1.14-.06,0-.15,0-.15-.08A1.33,1.33,0,0,0,17.07,41Zm-3.41,4.33c-.11-.06-.11-.24-.15-.38C13.76,44.9,13.62,45.22,13.65,45.36Zm.08.31c0-.12.08,0,.07.08S13.73,45.75,13.73,45.67Zm.46-2.05c0-.09.07,0,.07,0S14.19,43.66,14.19,43.61Zm1.67-2.12c-.2.26,0,.58.08.84C15.63,42.29,15.36,41.44,15.85,41.49Zm.38,4s.06-.1.08-.08S16.25,45.46,16.23,45.44ZM17,48.32c0-.11.07,0,.15,0A.08.08,0,0,1,17,48.32Zm2.2-2.58c-.23-.06-.15.21-.38.15a1.48,1.48,0,0,1,.23-.46C19.18,45.46,19.22,45.57,19.19,45.74Zm-1.14-3.8a2.77,2.77,0,0,1,.6.38,1.93,1.93,0,0,0,.38.53,20.12,20.12,0,0,1,.15,2.35c-.26.1-.44.27-.68.38a4.44,4.44,0,0,1-1.9-.46c-.17-.26-.35-.51-.53-.76V43.31a4.39,4.39,0,0,0,.46-.61c.23-.13.51-.2.45-.61a.37.37,0,0,1-.08-.23,1.89,1.89,0,0,1,.38.23C17.62,42.12,17.7,41.9,18.06,41.94Z" transform="translate(-4.87 -1.02)"/></g><g id="facebook-2" data-name="facebook"><path class="cls-2" d="M50.47,36.33a6.69,6.69,0,0,0,2.68-.3,8.08,8.08,0,0,0,.62-3c-.19,0-.06-.34-.21-.4s-.28-.19-.31-.4c-.28-.17-.46-.42-.72-.6l-2.16-.5a13.29,13.29,0,0,0-2.58.1,6.62,6.62,0,0,0-5.26,2.39c0,.08,0,.2-.1.2-.57,1.59-.12,3.62-.2,5.58.1.44.11,1,.2,1.4a18.67,18.67,0,0,1-3.4.5c-.32.32-.18,1.09-.21,1.69a15,15,0,0,0,.41,1.6,3.58,3.58,0,0,0,.83.5c.06,0,.07.08.1.1.51.27,1.45,0,2.27.1-.14,2,.26,3.91,0,5.68,0,.33.29.38.21.8a8.27,8.27,0,0,0,.21,2.69,2.62,2.62,0,0,0-.42,1.79c.12,0,.11.16.1.3-.07.47.64.18.52.7.16.46-.43.18-.41.5v.9a6,6,0,0,0,2.27.2c.91-.42,2.19-.48,2.79-1.19a1.28,1.28,0,0,0,1.24-.2c0-.31.27-.33.21-.7s-.17-.5-.1-.9V53c-.21-2.29,0-4.94-.31-7.18a9,9,0,0,0,2.58-.4,4.89,4.89,0,0,0,.52-1.9,1.55,1.55,0,0,0,.21-1c.19-.21.07-.73.1-1.1-.14-.6-.17-1.3-.82-1.39-.88-.23-2,.6-3,.3,0-1.13-.29-2.34,0-3.39C49.05,36.75,49.75,36.53,50.47,36.33Zm-3.82,4.78a3.8,3.8,0,0,0,.41.7c.08,0,.2,0,.21.1a10.32,10.32,0,0,0,3.1-.3,7.46,7.46,0,0,1-.52,2.49,10,10,0,0,1-2,.2c-.28.16-.37.51-.62.7,0,.44.14.49,0,.8-.2.14-.06.61-.21.8v1.49c.08.28-.15.26-.1.5v3.49c-.08.28.15.26.1.5v3c.06.27-.13.79.1.9-.07.36-.41,0-.82.1a7.62,7.62,0,0,1-1.55.4,2.84,2.84,0,0,0,.31-1.1c0-.38-.37-.31-.52-.49.19-.64.56-1.12.72-1.79.2-.51.71-1.3.31-1.79-.52-.1-.52.29-.83.4,0,.08,0,.19-.1.2s0,.2-.1.2-.15.06,0,0,0-.19.1-.2,0-.19.1-.2v-.3a5.68,5.68,0,0,0,.83-2,4.82,4.82,0,0,0,.41-1,1.29,1.29,0,0,0,.1-1.19,1,1,0,0,0-.93.7c-.32-.19.16-.44.1-.7.14-.23.17-.57.31-.8.2-.41.56-1.31,0-1.6a.66.66,0,0,0-.72.5,1.45,1.45,0,0,0-.52.7c-.37-.07-.14-.73-.21-1.1-.07-.52.12-.9,0-1.19-.56-.8-2-.1-3.2-.3a2.25,2.25,0,0,1-.1-1.19c1-.09,2.48.2,3.2-.2,0-.08,0-.2.1-.2.09-.72-.27-1-.52-1.4a17.08,17.08,0,0,0,.1-3c.23-.14.33-.41.51-.6.11-1,.67-1.48.72-2.49-.27,0-.61-.06-.62.2-.3-.11-.38.48-.52.2-.11-.54.25-.63.31-1,.6-.42,1.21-.82,1.86-1.19,1.74-.24,4.65-.45,6.09.2.05.62-.29.85-.21,1.5H50.37a30.28,30.28,0,0,0-3,1c-.24.07-.28.33-.52.4a6,6,0,0,1-.31,1C46.47,38.56,46.68,39.72,46.65,41.11Z" transform="translate(-4.87 -1.02)"/></g><g id="twitter-2" data-name="twitter"><path class="cls-2" d="M88.7,38.36c-.23-.37-.91-.28-1.41-.37H86.18a8.42,8.42,0,0,1,.52-1,5.46,5.46,0,0,0,.22-1.26c.13-.17.18-.42.29-.59s.24-.48.07-.67-.29-.25-.59-.22a.5.5,0,0,0-.22.15c-.45.43-.78,1-1.26,1.41h-.07c-.09,0,0,0-.07.07l-.37.22a3,3,0,0,1-.89.52A6.07,6.07,0,0,0,82,36.29a6.44,6.44,0,0,0-3,.74,7.34,7.34,0,0,0-2.15,1.63c0,.32-.34.4-.37.74,0,0,0,.09-.07.07,0,.24-.05.35-.07.52s.2.43,0,.52a7.13,7.13,0,0,1-2.15-1A10.14,10.14,0,0,1,72,38.44a6,6,0,0,1-1.78-1.33c-.21-.31-.54-.5-.67-.89-.38-.16-.18-.91-.74-.89-.32,0-.35.2-.44.37s-.36.23-.37.52c0,0,0,.09-.07.08a17.9,17.9,0,0,0-.52,3.26,3.09,3.09,0,0,0,.59,1,1.11,1.11,0,0,0-.89.52,3.71,3.71,0,0,0,.74,2.3,2.94,2.94,0,0,0,.59,1c0,.23.21.29.3.44s.12.13.15.22.29.18.07.22c-.41.13-1,.07-1.26.37a1.93,1.93,0,0,0,0,1.11c0,.24.28.26.3.52a18.48,18.48,0,0,0,1.63,1.11,14.89,14.89,0,0,0,1.85.37,1.43,1.43,0,0,1-.59.74,19.26,19.26,0,0,1-2.74.74c-.56,0-1,.23-1.56.22-.33.13-.85.07-1.11.22s-.1.1-.22.22a.72.72,0,0,0,.44.89c0,.25.22.28.37.37a.79.79,0,0,0,.44.37,10.47,10.47,0,0,0,1.93,1.11c.83.18,1.65.38,2.52.52s1.9.13,2.82.22h1a9.7,9.7,0,0,0,1.85.07c.1-.1.32-.07.52-.07a9.52,9.52,0,0,0,1.63-.74c.57-.24,1-.64,1.56-.89a10,10,0,0,0,2.52-2.37,1.64,1.64,0,0,0,.44-.74c.26-.16.39-.45.59-.67a10.26,10.26,0,0,0,1-1.4c.32-.5.58-1.06.89-1.56,0-.4.31-.48.3-.89.19-.22.18-.66.37-.88a1.38,1.38,0,0,1,.07-.59,12.15,12.15,0,0,0-.3-3.41,5.72,5.72,0,0,0,1.63-.59C88.41,39.44,88.88,39,88.7,38.36Zm-3.41,4.08a4.72,4.72,0,0,1-1,2c.06.38-.1.54-.07.89a4.32,4.32,0,0,0-.37,1c-.2.27-.33.61-.52.89-.37.55-.78,1.05-1.19,1.56s-.91,1-1.33,1.48-.94.88-1.41,1.33a4.9,4.9,0,0,0-1.26.67,5,5,0,0,0-.67.3c-.18.15-.5.15-.67.29a24.13,24.13,0,0,1-3.56.15,26.45,26.45,0,0,1-3-.37,11.86,11.86,0,0,1-2.3-1c.15-.24.64-.15,1-.22,0-.17.39,0,.44-.15.26.06.29-.11.52-.07a9.58,9.58,0,0,0,1.71-.59c.28-.14.4-.44.67-.59a.72.72,0,0,1,.22-.44c0-.28.2-.44.15-.82.11-.21.3-.34.29-.67-.07-.15-.13-.32-.29-.37s-.38-.07-.44-.22a1.37,1.37,0,0,1-.59-.07c-.15,0-.49.09-.52-.07a3.61,3.61,0,0,1-1.85-.74c.43-.26,1-.35,1.33-.74.52-.08,1.06-.13,1.11-.67,0-.72-.77-.66-1.33-.82a12.15,12.15,0,0,1-1.78-2.52c.24-.16.56-.23.74-.44.45.06.54-.25.67-.52,0-.49-.33-.6-.59-.81a3.44,3.44,0,0,1-.67-.74A18.58,18.58,0,0,1,68.69,37c.06,0,.07,0,.07.07.23.44.56.77.82,1.19a8.8,8.8,0,0,0,1.56,1.11c.45.41,1.11.62,1.56,1a16.32,16.32,0,0,1,1.7.89c.67.19,1.06.67,2,.59l.59-.3c.26-.46-.06-1.08.15-1.63a4.33,4.33,0,0,1,1.26-1.48,7.85,7.85,0,0,0,.82-.52,5,5,0,0,0,1-.37,6.32,6.32,0,0,0,1-.15h1.26a7.18,7.18,0,0,0,.74.15,1.83,1.83,0,0,0,.67.37,4.47,4.47,0,0,1,1.41,3A11.07,11.07,0,0,0,85.29,42.44Zm.3-5.63c-.13.34-.23.71-.59.81,0-.1-.12-.12-.15-.22s.21-.19.29-.3.25-.25.44-.3C85.58,36.72,85.69,36.76,85.58,36.81Zm-5.48,3a1.32,1.32,0,0,0,.52.37.71.71,0,0,0,.6.37c0-.15.35,0,.37-.22.17,0,.17-.23.3-.3a2.36,2.36,0,0,0-.37-1.33A.93.93,0,0,0,80.1,39.85Z" transform="translate(-4.87 -1.02)"/></g></svg>