<?xml version="1.0" encoding="utf-8"?>
<!-- Generator: Adobe Illustrator 16.2.0, SVG Export Plug-In . SVG Version: 6.00 Build 0)  -->
<!DOCTYPE svg PUBLIC "-//W3C//DTD SVG 1.1//EN" "http://www.w3.org/Graphics/SVG/1.1/DTD/svg11.dtd">
<svg version="1.1" id="Слой_1" xmlns="http://www.w3.org/2000/svg" xmlns:xlink="http://www.w3.org/1999/xlink" x="0px" y="0px"
	 width="90px" height="60px" viewBox="0 0 90 60" enable-background="new 0 0 90 60" xml:space="preserve">
<g id="instagram">
	<g>
		<path fill="#231F20" d="M26.634,16.315c-0.013-2.395-0.344-4.788-0.303-7.134c-0.022-0.788-0.086-1.535-0.152-2.278
			c-0.104-0.3-0.11-0.699-0.151-1.063c-0.26-0.17-0.223-0.639-0.456-0.834c-0.423-0.233-1.201-0.114-1.744-0.221
			C23.17,4.76,22.573,4.67,21.928,4.633c-1.936-0.102-3.973-0.076-5.995-0.076c-2.002,0-3.954-0.145-5.695-0.379H8.035
			C7.938,4.182,7.93,4.276,7.809,4.254c-0.6,0.033-1.077,0.188-1.596,0.303C6.003,4.676,5.792,4.792,5.53,4.861
			c-0.136,0.192-0.513,0.146-0.607,0.38c-0.186,0.211,0.186,0.45,0,0.606v0.911c0.173,0.13,0.027,0.58,0.075,0.834v0.988
			c-0.017,1.28,0.134,2.396,0.076,3.719c0.467,2.762,0.374,6.538,0.076,9.415c0.154,0.578,0.362,1.104,0.455,1.746
			c0.256,0.479,0.335,1.133,0.683,1.52c0.502,0.205,1.233,0.186,1.898,0.229c0.383,0.098,0.667,0.293,1.14,0.301
			c2.843-0.211,5.496-0.154,8.427-0.23c2.704,0.24,5.802,0.189,8.275-0.227c0.195-0.135,0.128-0.529,0.228-0.76
			c-0.056-0.387,0.207-0.449,0.229-0.76C26.615,21.138,26.648,18.743,26.634,16.315z M13.652,10.09
			c0.757-0.152,1.479-0.34,2.429-0.303c0.71,0.075,1.287,0.282,1.897,0.455c0.115,0.184-0.243,0.547,0.152,0.684v0.076
			c0.06,0.018,0.149,0.002,0.151,0.076c0.445,0.035,0.794,0.168,1.063,0.379c0.45,0.056,0.536,0.477,1.139,0.301
			c-0.091,0.213-0.084,0.523-0.075,0.834c0.324,1.184,0.475,2.811,0.303,4.252c-0.164,0.164-0.215,0.443-0.303,0.684
			c-0.311,0.322-0.481,0.785-0.836,1.063c-0.095,0.236-0.25,0.408-0.454,0.533c-0.116,0.213-0.206,0.451-0.457,0.529
			c-0.298,0.162-0.577,0.012-0.834-0.076c-0.446,0.162-0.904,0.313-1.215,0.607c-0.816-0.096-1.648-0.176-2.43-0.305
			c-0.242-0.139-0.487-0.273-0.835-0.305c-0.228-0.203-0.496-0.363-0.837-0.455c-0.101-0.127-0.337-0.117-0.454-0.229
			c-0.198-0.029-0.229-0.227-0.456-0.229c-0.118-0.412-0.443-0.619-0.532-1.063c-0.227-0.332-0.309-0.805-0.455-1.215
			c-0.043-1.434,0.091-2.693,0.379-3.797c0.346-0.59,0.779-1.094,1.138-1.67c0.249,0.021,0.365-0.09,0.38-0.303
			c0.307,0.053,0.435-0.072,0.685-0.076C13.451,10.547,13.463,10.231,13.652,10.09z M11.982,7.358
			c-0.117-0.264-0.066-0.691-0.075-1.063C11.9,6.01,12.186,6.017,12.211,5.764c-0.003-0.074-0.093-0.059-0.151-0.076
			c0.126-0.146,0.7-0.098,0.834,0c0.132,0.537-0.354,0.455-0.531,0.684c0.011,0.168,0.322,0.032,0.456,0.076
			c0.028,0.854-0.06,1.496,0,2.202h-0.456c-0.007,0.233,0.229,0.226,0.456,0.228c-0.06,0.287,0.092,0.363,0.075,0.607
			c-0.227,0.153-0.717,0.042-1.063,0.075C11.729,8.965,12.066,8.185,11.982,7.358z M11.299,5.764
			C11.387,5.75,11.434,5.78,11.45,5.84c0.179,0.252,0.01,0.683-0.076,0.91C11.201,6.572,11.349,6.069,11.299,5.764z M11.451,7.586
			c-0.132-0.069-0.168-0.237-0.152-0.457C11.432,7.202,11.466,7.368,11.451,7.586z M11.451,8.954
			c-0.058,0.139-0.082-0.045-0.076-0.152C11.434,8.663,11.456,8.846,11.451,8.954z M11.299,9.181
			c0.176-0.024,0.084,0.219,0.229,0.228c-0.009,0.192-0.283,0.178-0.38,0.076C11.187,9.374,11.26,9.292,11.299,9.181z M8.945,7.965
			C8.951,7.857,8.958,7.75,8.869,7.737c-0.073-0.732,0.13-1.415,0-1.973c0.25-0.155,0.769-0.042,1.139-0.077v1.14
			C9.92,6.89,9.805,6.926,9.629,6.903c-0.054,0.28,0.324,0.131,0.379,0.305c0.009,0.853-0.056,1.776,0.152,2.428
			C9.595,9.577,9.254,9.743,8.718,9.711C8.815,9.1,8.699,8.277,9.249,8.118C9.237,7.977,8.992,8.071,8.945,7.965z M8.414,7.965
			C8.21,7.986,8.197,7.431,8.337,7.358C8.665,7.364,8.586,7.859,8.414,7.965z M8.262,8.954C8.339,8.641,8.296,8.649,8.337,8.27
			C8.565,8.284,8.597,9.04,8.262,8.954z M8.49,6.903c-0.263,0.055-0.273-0.266-0.153-0.38C8.601,6.469,8.609,6.79,8.49,6.903z
			 M8.49,5.764c0.033,0.158-0.052,0.201-0.076,0.304C8.238,6.09,8.33,5.849,8.186,5.838C8.21,5.737,8.376,5.777,8.49,5.764z
			 M8.262,9.485c0.148-0.031,0.11,0.346-0.075,0.227C8.227,9.65,8.266,9.588,8.262,9.485z M7.578,5.764
			c0.029,0.259-0.438,0.32-0.379,0H7.578z M6.591,5.84C6.558,6.059,6.266,6.019,6.212,6.219C5.998,6.049,6.296,5.75,6.591,5.84z
			 M6.136,6.599c0.227-0.205,0.451-0.41,0.685-0.606C6.799,5.87,6.892,5.861,6.896,5.764h0.229C7.228,6.145,6.864,6.06,6.82,6.295
			c0.021,0.121-0.072,0.131-0.075,0.227C6.766,6.857,6.866,7.11,6.82,7.51C6.55,7.518,6.544,7.79,6.213,7.737
			C6.235,7.309,6.078,7.063,6.136,6.599z M6.212,9.864V8.27c0.195-0.186,0.396-0.364,0.607-0.532
			c0.295,0.489,0.179,1.392,0.455,1.897C6.999,9.792,6.524,9.747,6.212,9.864z M24.434,20.948c-0.109,0.953-0.158,1.969-0.38,2.809
			c-2.89,0.123-6.02,0.006-8.883,0.154c-0.199,0.045-0.272-0.031-0.229-0.23c-0.253,0-0.258,0.248-0.531,0.23
			c0.201-0.336,0.438-0.898,0.151-1.291c-0.797,0.012-0.797,0.82-1.139,1.291c-0.686-0.055-1.137,0.127-1.822,0.074
			c0.18-0.705,0.75-1.021,0.91-1.746c-0.395-0.549-0.988,0.139-1.214,0.455c-0.204,0.48-0.557,0.811-0.76,1.291H9.553
			c0.238-0.469,0.489-0.926,0.76-1.365c0.171-0.514,0.625-0.742,0.683-1.367c-0.157-0.281-0.42-0.029-0.683,0
			c-0.123,0.182-0.272,0.334-0.38,0.531c-0.232,0.375-0.501,0.713-0.685,1.139c-0.181,0.209-0.335,0.004-0.53,0.227
			c-0.389,0.271-0.581,0.736-0.987,0.988c-0.174-0.061,0.039-0.357,0.152-0.381c0.045-0.18-0.096-0.549,0.075-0.607
			c0.063-0.365,0.212-0.646,0.379-0.91c0.119-0.74,0.521-1.197,0.685-1.896c-0.56,0.098-0.675,0.643-0.988,0.986
			c-0.212,0.445-0.542,0.771-0.683,1.291c-0.175-0.131-0.028-0.58-0.076-0.836c0.122-0.586,0.298-1.119,0.38-1.746
			c0.133-0.221,0.173-0.535,0.228-0.834c0.168-0.209,0.046-0.609-0.077-0.762c-0.226,0.027-0.373,0.135-0.454,0.305
			c-0.192-0.031-0.193,0.506-0.305,0.305c-0.045-2.588-0.451-4.813-0.456-7.439c0.026-0.331-0.183-0.424-0.228-0.685
			c1.629,0.027,3.121,0.091,4.783,0.229c-0.089,0.139-0.199,0.258-0.305,0.379c-0.144,0.07-0.226,0.174-0.378,0.305
			c-0.604,1.652-0.975,3.985-0.606,6.151c0.229,0.578,0.589,1.027,0.985,1.439c0.907,0.486,1.636,1.15,2.507,1.672
			c1.7,0.361,3.84,0.369,5.541,0c0.235-0.121,0.483-0.227,0.685-0.381c1.364-1.242,2.753-2.459,2.961-4.859v-1.366
			c-0.197-1.599-0.688-2.906-1.747-3.645c0.331-0.221,1.099,0.043,1.67,0.076c0.224,0.013,0.447,0.014,0.685,0
			c0.407-0.024,0.928-0.055,1.442,0c0.145,0.188,0.113,0.544,0.229,0.76c-0.063,1.684-0.192,3.3-0.152,5.086
			c0.103,0.455,0.127,0.986,0.229,1.441C24.799,19.188,24.653,20.106,24.434,20.948z M24.813,9.788
			c-0.64-0.119-1.232-0.283-1.897-0.379c0.072-0.332,0.799-0.01,0.987-0.228c0.385-0.224,0.295-0.921,0.304-1.511
			c0.032-0.348,0.114-0.644,0.076-1.063c-0.401-0.951-1.783-0.421-2.886-0.455c-0.226,0.719-0.471,1.801-0.305,2.657
			c0.169,0.489,1.024,0.292,1.52,0.456c-0.141,0.332-0.688,0.057-0.987,0.076c-0.296-0.084-0.707-0.053-0.986-0.151
			c-2.284,0.078-4.283,0.004-6.528,0.151c0.117-1.248,0.063-2.465-0.076-3.646h3.112c-0.345,0.364-0.912,0.507-1.29,0.835
			c-0.44,0.244-0.861,0.506-1.14,0.911c0.249,0.134,0.535-0.245,0.76-0.379c0.354-0.073,0.479-0.381,0.835-0.455
			c0.423-0.438,1.096-0.625,1.67-0.912c0.378-0.022,0.696,0.013,0.986,0.077C20.25,5.781,21.423,5.9,22.763,5.85
			c0.614,0.145,1.45,0.068,1.975,0.304c0.106,0.298,0.23,0.579,0.305,0.911C25.05,8.051,24.894,8.881,24.813,9.788z M18.967,6.068
			C19.077,6.021,18.958,5.976,18.967,6.068L18.967,6.068z M18.967,6.068c-0.528,0.154-1.019,0.349-1.366,0.683
			C18.084,6.551,18.659,6.444,18.967,6.068z M20.029,6.674C20.141,6.627,20.022,6.584,20.029,6.674L20.029,6.674z M18.283,7.586
			c0.727-0.158,1.181-0.592,1.746-0.912c-0.438,0.02-0.592,0.32-0.987,0.38C18.827,7.271,18.442,7.314,18.283,7.586z M17.601,6.75
			C17.489,6.797,17.607,6.842,17.601,6.75L17.601,6.75z M16.917,7.358C17.027,7.312,16.909,7.266,16.917,7.358L16.917,7.358z
			 M16.842,7.434c0.063,0.014,0.07-0.03,0.075-0.076C16.854,7.344,16.845,7.388,16.842,7.434z M16.766,7.51
			c0.063,0.014,0.071-0.03,0.076-0.076C16.775,7.42,16.771,7.463,16.766,7.51z M15.932,8.118c0.346-0.134,0.612-0.348,0.834-0.607
			C16.417,7.644,16.15,7.858,15.932,8.118z M18.207,9.105c0.533-0.049,0.749-0.416,1.215-0.53c0.284-0.299,0.784-0.382,0.987-0.761
			c-0.56,0.022-0.766,0.399-1.216,0.53C18.909,8.642,18.442,8.758,18.207,9.105z M15.932,8.118
			C15.614,8.043,15.915,8.344,15.932,8.118L15.932,8.118z M15.398,8.497c0.021,0.021,0.114-0.037,0.076-0.076
			C15.453,8.4,15.358,8.458,15.398,8.497z M18.207,9.105C18.097,9.152,18.214,9.196,18.207,9.105L18.207,9.105z M17.067,10.926
			c-0.224-0.231-0.676-0.233-0.986-0.379c-0.697-0.039-1.223,0.093-1.746,0.229c-0.304,0.15-0.606,0.305-0.91,0.454
			c-0.266,0.166-0.443,0.417-0.76,0.532c-0.205,0.225-0.352,0.51-0.684,0.607c-0.004,0.223-0.173,0.28-0.305,0.379
			c-0.089,0.114-0.094,0.312-0.227,0.381c-0.007,0.119,0.036,0.289-0.076,0.303c0.108,1.512,0.291,2.948,0.684,4.176
			c0.286,0.623,0.975,0.848,1.441,1.291c0.589,0.297,1.328,0.443,2.126,0.531c0.277-0.053,0.553-0.105,0.911-0.076
			c1.209-0.209,2.098-0.736,2.81-1.441c0.101-0.281,0.253-0.508,0.455-0.684c-0.254-0.672,0.293-1.098,0.455-1.59
			c0.002-1.344-0.201-2.481-0.606-3.416c-0.256-0.579-0.92-0.751-1.366-1.14c-0.059-0.018-0.15-0.002-0.151-0.076
			C17.863,10.872,17.399,10.769,17.067,10.926z M13.652,15.253c-0.113-0.063-0.109-0.245-0.152-0.379
			C13.756,14.795,13.618,15.11,13.652,15.253z M13.729,15.558c0.041-0.117,0.079-0.006,0.075,0.076
			C13.765,15.751,13.726,15.638,13.729,15.558z M14.185,13.506c0.015-0.086,0.074-0.041,0.074,0
			C14.245,13.594,14.185,13.549,14.185,13.506z M15.854,11.381c-0.203,0.259,0.041,0.576,0.077,0.836
			C15.626,12.179,15.357,11.331,15.854,11.381z M16.233,15.331c-0.04-0.039,0.055-0.098,0.076-0.076
			C16.35,15.292,16.255,15.351,16.233,15.331z M16.992,18.214c0.034-0.109,0.066,0.008,0.152,0
			C17.126,18.312,16.994,18.292,16.992,18.214z M19.193,15.634c-0.233-0.057-0.146,0.207-0.379,0.152
			c0.068-0.16,0.118-0.34,0.229-0.455C19.177,15.349,19.215,15.46,19.193,15.634z M18.057,11.836
			c0.211,0.119,0.44,0.218,0.605,0.381c0.085,0.22,0.243,0.363,0.38,0.529c0.059,0.778,0.179,1.492,0.151,2.354
			c-0.257,0.1-0.438,0.271-0.684,0.381c-0.779-0.006-1.357-0.211-1.896-0.455c-0.171-0.259-0.355-0.505-0.532-0.759v-1.062
			c0.17-0.186,0.319-0.392,0.456-0.607c0.229-0.127,0.508-0.201,0.454-0.607c-0.038-0.062-0.078-0.123-0.075-0.229
			c0.158,0.045,0.245,0.158,0.379,0.229C17.618,12.008,17.705,11.792,18.057,11.836z"/>
	</g>
</g>
<g id="facebook">
	<g>
		<path fill="#231F20" d="M50.471,6.218c1.025,0.028,1.992,0,2.68-0.3c0.391-0.818,0.557-1.854,0.619-2.989
			c-0.189-0.015-0.063-0.337-0.207-0.399c-0.029-0.201-0.277-0.194-0.309-0.397c-0.277-0.165-0.457-0.422-0.723-0.599
			C51.805,1.372,51.09,1.2,50.367,1.036c-0.85,0.043-1.895-0.104-2.58,0.1c-2.619-0.04-3.998,1.12-5.259,2.393
			c-0.023,0.078-0.003,0.196-0.105,0.198c-0.573,1.587-0.125,3.621-0.203,5.581c0.099,0.436,0.107,0.958,0.203,1.395
			c-0.997,0.297-2.211,0.388-3.401,0.5c-0.317,0.324-0.178,1.089-0.206,1.692c0.085,0.583,0.278,1.06,0.413,1.595
			c0.211,0.193,0.597,0.396,0.825,0.498c0.064,0.029,0.07,0.083,0.104,0.1c0.506,0.27,1.45,0.008,2.268,0.102
			c-0.137,1.977,0.256,3.914,0,5.68c0.007,0.326,0.295,0.381,0.207,0.797c0,0.963-0.066,1.99,0.209,2.691
			c-0.287,0.453-0.497,0.98-0.415,1.793c0.122,0.016,0.114,0.156,0.104,0.299c-0.074,0.471,0.643,0.176,0.516,0.699
			c0.162,0.455-0.428,0.184-0.414,0.496v0.896c0.531,0.285,1.463,0.182,2.269,0.199c0.908-0.418,2.188-0.479,2.786-1.195
			c0.459,0.234,0.916-0.014,1.236-0.199c-0.018-0.314,0.273-0.334,0.205-0.697c-0.004-0.328-0.172-0.496-0.102-0.896V22.86
			c-0.207-2.293-0.049-4.938-0.311-7.176c0.889-0.105,1.918-0.074,2.578-0.398c0.357-0.451,0.377-1.23,0.518-1.895
			c0.176-0.226,0.221-0.583,0.205-0.996c0.189-0.213,0.068-0.729,0.104-1.096c-0.141-0.596-0.168-1.3-0.824-1.391
			c-0.885-0.234-2.043,0.596-2.99,0.3c0.049-1.134-0.293-2.343,0-3.388C49.051,6.639,49.75,6.42,50.471,6.218z M46.652,11.001
			c0.117,0.254,0.254,0.485,0.414,0.698c0.078,0.021,0.203,0.002,0.205,0.101c1.191,0.056,2.199-0.069,3.096-0.299
			c0,0.998-0.271,1.733-0.518,2.491c-0.662,0.045-1.469,0.301-1.959,0.199c-0.275,0.164-0.371,0.506-0.619,0.697
			c-0.049,0.442,0.141,0.495,0,0.797c-0.201,0.137-0.057,0.612-0.205,0.798v1.493c0.084,0.281-0.146,0.26-0.105,0.498v3.488
			c-0.084,0.281,0.146,0.258,0.105,0.498v2.988c0.063,0.271-0.133,0.791,0.102,0.896c-0.068,0.363-0.412-0.021-0.822,0.1
			c-0.529,0.123-0.927,0.369-1.548,0.4c0.117-0.354,0.32-0.623,0.311-1.098c0.049-0.381-0.365-0.311-0.516-0.49
			c0.193-0.643,0.563-1.117,0.722-1.793c0.197-0.514,0.713-1.297,0.31-1.793c-0.521-0.105-0.521,0.293-0.826,0.398
			c-0.021,0.076-0.002,0.195-0.102,0.197c-0.023,0.078-0.004,0.197-0.104,0.199c0.01,0.121-0.151,0.063,0,0
			c0.021-0.078,0.002-0.195,0.104-0.199c0.022-0.076,0.002-0.195,0.102-0.197v-0.299c0.369-0.576,0.671-1.215,0.826-1.994
			c0.191-0.279,0.283-0.656,0.412-0.996c0.156-0.264,0.34-0.869,0.105-1.195c-0.517,0.033-0.796,0.295-0.931,0.697
			c-0.319-0.189,0.162-0.436,0.104-0.697c0.138-0.23,0.169-0.565,0.31-0.796c0.201-0.414,0.564-1.306,0-1.597
			c-0.438-0.023-0.612,0.207-0.724,0.498c-0.214,0.189-0.43,0.384-0.516,0.698c-0.373-0.07-0.144-0.728-0.206-1.099
			c-0.067-0.52,0.122-0.899,0-1.195c-0.561-0.799-2.026-0.104-3.197-0.299c-0.107-0.308-0.222-0.983-0.104-1.194
			c1.045-0.089,2.479,0.2,3.197-0.199c0.023-0.078,0.002-0.197,0.104-0.199c0.094-0.723-0.271-1-0.516-1.396
			c0.232-0.806,0.041-2.02,0.104-2.988C44,7.679,44.095,7.407,44.282,7.222c0.112-0.955,0.674-1.476,0.723-2.489
			c-0.273,0-0.607-0.056-0.619,0.198c-0.303-0.114-0.383,0.479-0.516,0.199c-0.111-0.541,0.246-0.626,0.31-0.997
			c0.599-0.418,1.212-0.82,1.856-1.195c1.74-0.244,4.648-0.449,6.086,0.198c0.051,0.616-0.287,0.854-0.207,1.496h-1.547
			c-1.092,0.239-1.986,0.672-2.99,0.997c-0.24,0.066-0.275,0.331-0.516,0.398c-0.037,0.396-0.225,0.646-0.311,0.996
			C46.471,8.454,46.684,9.612,46.652,11.001z"/>
	</g>
</g>
<g id="twitter">
	<g>
		<path fill="#231F20" d="M86.823,8.859c-0.227-0.367-0.909-0.277-1.407-0.371h-1.112c0.143-0.354,0.344-0.646,0.521-0.963
			c0.056-0.438,0.254-0.734,0.224-1.26c0.129-0.168,0.176-0.418,0.295-0.594c0.104-0.145,0.242-0.477,0.074-0.667
			c-0.051-0.222-0.295-0.249-0.593-0.222c-0.088,0.035-0.169,0.078-0.222,0.148c-0.448,0.432-0.778,1.014-1.262,1.407
			c-0.009,0.009-0.062,0-0.074,0c-0.086,0.005-0.032,0.046-0.074,0.074c-0.146,0.098-0.258,0.151-0.369,0.223
			c-0.284,0.177-0.547,0.445-0.891,0.519c-0.529-0.211-1.156-0.325-1.853-0.369C78.923,6.886,77.777,7,77.042,7.525
			c-0.91,0.351-1.477,1.043-2.148,1.631c-0.049,0.32-0.342,0.397-0.37,0.74c-0.005,0.045-0.013,0.088-0.073,0.074
			c0.043,0.241-0.051,0.346-0.074,0.52c-0.001,0.133,0.199,0.431,0,0.52c-0.822-0.119-1.484-0.63-2.148-0.964
			c-0.719-0.36-1.469-0.604-2.074-1.11c-0.717-0.322-1.26-0.816-1.778-1.334c-0.208-0.313-0.542-0.496-0.667-0.891
			c-0.379-0.164-0.175-0.912-0.74-0.889c-0.315-0.043-0.346,0.199-0.445,0.369c-0.069,0.228-0.36,0.232-0.37,0.52
			c-0.005,0.046-0.011,0.088-0.074,0.075c-0.17,1.089-0.526,1.991-0.519,3.26c0.129,0.415,0.35,0.737,0.593,1.038
			c-0.418,0.051-0.716,0.223-0.89,0.52c-0.061,1.072,0.377,1.646,0.742,2.297c0.133,0.383,0.352,0.685,0.592,0.963
			c0.018,0.228,0.207,0.287,0.297,0.445c0.019,0.105,0.123,0.125,0.148,0.223c-0.04,0.105,0.289,0.18,0.073,0.221
			c-0.413,0.131-1.017,0.07-1.259,0.371c-0.109,0.279-0.109,0.834,0,1.111c0.033,0.236,0.281,0.262,0.296,0.52
			c0.499,0.416,1.082,0.746,1.631,1.111c0.574,0.166,1.211,0.271,1.853,0.369c-0.103,0.344-0.338,0.553-0.594,0.742
			c-0.779,0.381-1.849,0.473-2.742,0.74c-0.555,0.037-0.955,0.229-1.556,0.223c-0.333,0.127-0.854,0.074-1.112,0.223
			c-0.121,0.068-0.102,0.096-0.222,0.221c-0.134,0.412,0.11,0.74,0.444,0.891c-0.006,0.252,0.219,0.275,0.371,0.371
			c0.088,0.184,0.254,0.289,0.445,0.369c0.543,0.469,1.268,0.76,1.926,1.113c0.83,0.182,1.648,0.375,2.521,0.518
			c0.896,0.117,1.901,0.125,2.815,0.223h0.963c0.512,0.133,1.23,0.055,1.854,0.074c0.096-0.102,0.322-0.074,0.52-0.074
			c0.521-0.27,1.195-0.385,1.631-0.74c0.574-0.24,0.988-0.643,1.557-0.891c0.866-0.764,1.938-1.322,2.52-2.369
			c0.205-0.189,0.351-0.438,0.444-0.74c0.265-0.156,0.386-0.453,0.593-0.666c0.404-0.41,0.707-0.924,1.037-1.4
			c0.319-0.496,0.576-1.055,0.891-1.557c-0.01-0.404,0.306-0.484,0.296-0.891c0.192-0.225,0.177-0.661,0.371-0.878
			c-0.033-0.256,0.028-0.416,0.073-0.594c0.047-1.281-0.047-2.423-0.297-3.408c0.588-0.154,1.182-0.301,1.631-0.592
			C86.535,9.933,87.009,9.537,86.823,8.859z M83.415,12.935c-0.152,0.858-0.615,1.409-1.038,2c0.06,0.378-0.104,0.539-0.073,0.888
			c-0.158,0.313-0.287,0.652-0.371,1.037c-0.203,0.268-0.332,0.607-0.519,0.891c-0.366,0.549-0.776,1.051-1.187,1.557
			c-0.377,0.561-0.911,0.965-1.334,1.482c-0.42,0.492-0.941,0.885-1.406,1.334c-0.475,0.17-0.891,0.395-1.26,0.666
			c-0.232,0.09-0.463,0.18-0.668,0.297c-0.176,0.145-0.498,0.145-0.668,0.289c-1.086,0.146-2.299,0.17-3.555,0.148
			c-1.031-0.105-2.115-0.16-3.039-0.371c-0.922-0.189-1.511-0.713-2.297-1.037c0.153-0.242,0.635-0.154,0.963-0.223
			c0.031-0.166,0.395-0.002,0.444-0.148c0.257,0.061,0.285-0.109,0.521-0.07c0.563-0.201,1.229-0.301,1.705-0.592
			c0.281-0.139,0.405-0.436,0.666-0.594c0.033-0.189,0.104-0.342,0.223-0.443c0.047-0.275,0.201-0.441,0.148-0.816
			c0.11-0.209,0.299-0.342,0.295-0.666c-0.074-0.146-0.127-0.316-0.295-0.371c-0.027-0.195-0.378-0.066-0.445-0.223
			c-0.254,0.033-0.416-0.029-0.592-0.074c-0.154-0.043-0.488,0.092-0.52-0.074c-0.842-0.021-1.301-0.43-1.854-0.738
			c0.432-0.264,1.032-0.354,1.334-0.742c0.516-0.076,1.058-0.129,1.111-0.666c0-0.717-0.771-0.662-1.333-0.816
			c-0.772-0.66-1.194-1.672-1.778-2.52c0.237-0.156,0.563-0.227,0.74-0.443c0.454,0.058,0.54-0.252,0.667-0.521
			c0.019-0.488-0.333-0.604-0.593-0.815c-0.259-0.209-0.475-0.461-0.667-0.74c-0.003-0.817-0.021-1.651,0.074-2.371
			c0.063-0.014,0.069,0.029,0.073,0.074c0.228,0.44,0.56,0.774,0.815,1.186c0.532,0.357,0.925,0.854,1.556,1.111
			c0.453,0.414,1.108,0.621,1.558,1.039c0.601,0.263,1.157,0.569,1.704,0.889c0.669,0.193,1.056,0.673,2.001,0.593
			c0.198-0.099,0.394-0.198,0.593-0.297c0.258-0.456-0.059-1.079,0.146-1.63c0.256-0.659,0.797-1.031,1.261-1.48
			c0.29-0.156,0.555-0.336,0.815-0.52c0.346-0.098,0.674-0.217,0.963-0.37c0.377-0.019,0.713-0.077,1.037-0.147h1.26
			c0.244,0.051,0.476,0.119,0.74,0.147c0.209,0.138,0.381,0.313,0.666,0.371c0.789,0.692,1.271,1.696,1.409,3.039
			C83.292,11.937,83.468,12.326,83.415,12.935z M83.711,7.302c-0.129,0.34-0.229,0.707-0.593,0.814
			c-0.018-0.104-0.122-0.125-0.146-0.221c-0.013-0.209,0.209-0.187,0.295-0.297C83.429,7.515,83.513,7.351,83.711,7.302
			C83.704,7.212,83.819,7.256,83.711,7.302z M78.228,10.34c0.162,0.136,0.283,0.31,0.519,0.371c0.101,0.222,0.313,0.327,0.595,0.37
			c0.047-0.15,0.346-0.049,0.369-0.223c0.174-0.022,0.166-0.229,0.297-0.297c-0.019-0.55-0.13-1.006-0.371-1.332
			C78.878,8.806,77.96,9.269,78.228,10.34z"/>
	</g>
</g>
<g id="instagram_1_">
	<g>
		<path fill="#46C1AE" d="M26.634,46.424c-0.013-2.396-0.344-4.788-0.303-7.135c-0.022-0.788-0.086-1.535-0.152-2.278
			c-0.104-0.3-0.11-0.699-0.151-1.063c-0.26-0.17-0.223-0.639-0.456-0.834c-0.423-0.233-1.201-0.114-1.744-0.221
			c-0.657-0.025-1.254-0.115-1.899-0.152c-1.936-0.102-3.973-0.076-5.995-0.076c-2.002,0-3.954-0.145-5.695-0.379H8.035
			c-0.097,0.004-0.105,0.098-0.227,0.076c-0.6,0.033-1.077,0.188-1.596,0.303c-0.21,0.119-0.421,0.234-0.683,0.304
			c-0.136,0.192-0.513,0.146-0.607,0.38c-0.186,0.211,0.186,0.45,0,0.606v0.911c0.173,0.13,0.027,0.58,0.075,0.834v0.988
			c-0.017,1.28,0.134,2.396,0.076,3.719c0.467,2.763,0.374,6.538,0.076,9.415c0.154,0.578,0.362,1.104,0.455,1.746
			c0.256,0.479,0.335,1.133,0.683,1.52c0.502,0.205,1.233,0.186,1.898,0.229c0.383,0.098,0.667,0.293,1.14,0.301
			c2.843-0.211,5.496-0.154,8.427-0.23c2.704,0.24,5.802,0.189,8.275-0.227c0.195-0.135,0.128-0.529,0.228-0.76
			c-0.056-0.387,0.207-0.449,0.229-0.76C26.615,51.246,26.648,48.852,26.634,46.424z M13.652,40.198
			c0.757-0.152,1.479-0.34,2.429-0.303c0.71,0.075,1.287,0.282,1.897,0.455c0.115,0.184-0.243,0.547,0.152,0.684v0.076
			c0.06,0.018,0.149,0.002,0.151,0.076c0.445,0.035,0.794,0.168,1.063,0.379c0.45,0.056,0.536,0.477,1.139,0.301
			c-0.091,0.213-0.084,0.523-0.075,0.834c0.324,1.184,0.475,2.812,0.303,4.253c-0.164,0.164-0.215,0.443-0.303,0.684
			c-0.311,0.322-0.481,0.785-0.836,1.063c-0.095,0.236-0.25,0.408-0.454,0.533c-0.116,0.213-0.206,0.451-0.457,0.529
			c-0.298,0.162-0.577,0.012-0.834-0.076c-0.446,0.162-0.904,0.313-1.215,0.607c-0.816-0.096-1.648-0.176-2.43-0.305
			c-0.242-0.139-0.487-0.273-0.835-0.305c-0.228-0.203-0.496-0.363-0.837-0.455c-0.101-0.127-0.337-0.117-0.454-0.229
			c-0.198-0.029-0.229-0.227-0.456-0.229c-0.118-0.412-0.443-0.619-0.532-1.063c-0.227-0.332-0.309-0.805-0.455-1.215
			c-0.043-1.435,0.091-2.693,0.379-3.798c0.346-0.59,0.779-1.094,1.138-1.67c0.249,0.021,0.365-0.09,0.38-0.303
			c0.307,0.053,0.435-0.072,0.685-0.076C13.451,40.655,13.463,40.339,13.652,40.198z M11.982,37.466
			c-0.117-0.264-0.066-0.691-0.075-1.063c-0.007-0.285,0.278-0.278,0.304-0.531c-0.003-0.074-0.093-0.059-0.151-0.076
			c0.126-0.146,0.7-0.098,0.834,0c0.132,0.537-0.354,0.455-0.531,0.684c0.011,0.168,0.322,0.032,0.456,0.076
			c0.028,0.854-0.06,1.496,0,2.202h-0.456c-0.007,0.233,0.229,0.226,0.456,0.228c-0.06,0.287,0.092,0.363,0.075,0.607
			c-0.227,0.153-0.717,0.042-1.063,0.075C11.729,39.073,12.066,38.293,11.982,37.466z M11.299,35.872
			c0.088-0.014,0.135,0.016,0.151,0.076c0.179,0.252,0.01,0.683-0.076,0.91C11.201,36.68,11.349,36.177,11.299,35.872z
			 M11.451,37.694c-0.132-0.069-0.168-0.237-0.152-0.457C11.432,37.31,11.466,37.476,11.451,37.694z M11.451,39.062
			c-0.058,0.139-0.082-0.045-0.076-0.152C11.434,38.771,11.456,38.954,11.451,39.062z M11.299,39.289
			c0.176-0.024,0.084,0.219,0.229,0.228c-0.009,0.192-0.283,0.178-0.38,0.076C11.187,39.481,11.26,39.399,11.299,39.289z
			 M8.945,38.073c0.006-0.108,0.013-0.215-0.076-0.229c-0.073-0.732,0.13-1.415,0-1.973c0.25-0.155,0.769-0.042,1.139-0.077v1.14
			c-0.088,0.063-0.203,0.1-0.379,0.076c-0.054,0.28,0.324,0.131,0.379,0.305c0.009,0.853-0.056,1.776,0.152,2.428
			c-0.565-0.059-0.906,0.107-1.442,0.076c0.098-0.611-0.019-1.435,0.531-1.594C9.237,38.085,8.992,38.179,8.945,38.073z
			 M8.414,38.073c-0.204,0.021-0.217-0.534-0.077-0.607C8.665,37.472,8.586,37.967,8.414,38.073z M8.262,39.062
			c0.077-0.313,0.034-0.305,0.075-0.684C8.565,38.392,8.597,39.147,8.262,39.062z M8.49,37.011c-0.263,0.055-0.273-0.266-0.153-0.38
			C8.601,36.577,8.609,36.897,8.49,37.011z M8.49,35.872c0.033,0.158-0.052,0.201-0.076,0.304c-0.176,0.022-0.084-0.219-0.229-0.229
			C8.21,35.845,8.376,35.885,8.49,35.872z M8.262,39.593c0.148-0.031,0.11,0.346-0.075,0.227
			C8.227,39.758,8.266,39.696,8.262,39.593z M7.578,35.872c0.029,0.259-0.438,0.32-0.379,0H7.578z M6.591,35.948
			c-0.033,0.219-0.325,0.179-0.379,0.379C5.998,36.157,6.296,35.858,6.591,35.948z M6.136,36.707
			c0.227-0.205,0.451-0.41,0.685-0.606c-0.021-0.123,0.071-0.132,0.076-0.229h0.229c0.103,0.381-0.261,0.296-0.305,0.531
			c0.021,0.121-0.072,0.131-0.075,0.227c0.021,0.335,0.121,0.588,0.075,0.988c-0.271,0.008-0.276,0.279-0.607,0.227
			C6.235,37.417,6.078,37.171,6.136,36.707z M6.212,39.972v-1.594c0.195-0.186,0.396-0.364,0.607-0.532
			c0.295,0.489,0.179,1.392,0.455,1.897C6.999,39.899,6.524,39.854,6.212,39.972z M24.434,51.057
			c-0.109,0.953-0.158,1.969-0.38,2.809c-2.89,0.123-6.02,0.006-8.883,0.154c-0.199,0.045-0.272-0.031-0.229-0.23
			c-0.253,0-0.258,0.248-0.531,0.23c0.201-0.336,0.438-0.898,0.151-1.291c-0.797,0.012-0.797,0.82-1.139,1.291
			c-0.686-0.055-1.137,0.127-1.822,0.074c0.18-0.705,0.75-1.021,0.91-1.746c-0.395-0.549-0.988,0.139-1.214,0.455
			c-0.204,0.48-0.557,0.811-0.76,1.291H9.553c0.238-0.469,0.489-0.926,0.76-1.365c0.171-0.514,0.625-0.742,0.683-1.367
			c-0.157-0.281-0.42-0.029-0.683,0c-0.123,0.182-0.272,0.334-0.38,0.531c-0.232,0.375-0.501,0.713-0.685,1.139
			c-0.181,0.209-0.335,0.004-0.53,0.227c-0.389,0.271-0.581,0.736-0.987,0.988c-0.174-0.061,0.039-0.357,0.152-0.381
			c0.045-0.18-0.096-0.549,0.075-0.607c0.063-0.365,0.212-0.646,0.379-0.91c0.119-0.74,0.521-1.197,0.685-1.896
			c-0.56,0.098-0.675,0.643-0.988,0.986c-0.212,0.445-0.542,0.771-0.683,1.291c-0.175-0.131-0.028-0.58-0.076-0.836
			c0.122-0.586,0.298-1.119,0.38-1.746c0.133-0.221,0.173-0.535,0.228-0.834c0.168-0.209,0.046-0.609-0.077-0.762
			c-0.226,0.027-0.373,0.135-0.454,0.305c-0.192-0.031-0.193,0.506-0.305,0.305c-0.045-2.588-0.451-4.813-0.456-7.439
			c0.026-0.331-0.183-0.424-0.228-0.685c1.629,0.027,3.121,0.091,4.783,0.229c-0.089,0.139-0.199,0.258-0.305,0.379
			c-0.144,0.07-0.226,0.174-0.378,0.305c-0.604,1.652-0.975,3.985-0.606,6.151c0.229,0.578,0.589,1.027,0.985,1.439
			c0.907,0.486,1.636,1.15,2.507,1.672c1.7,0.361,3.84,0.369,5.541,0c0.235-0.121,0.483-0.227,0.685-0.381
			c1.364-1.242,2.753-2.459,2.961-4.859v-1.366c-0.197-1.599-0.688-2.906-1.747-3.645c0.331-0.221,1.099,0.043,1.67,0.076
			c0.224,0.013,0.447,0.014,0.685,0c0.407-0.024,0.928-0.055,1.442,0c0.145,0.188,0.113,0.544,0.229,0.76
			c-0.063,1.684-0.192,3.3-0.152,5.087c0.103,0.455,0.127,0.986,0.229,1.441C24.799,49.297,24.653,50.215,24.434,51.057z
			 M24.813,39.896c-0.64-0.119-1.232-0.283-1.897-0.379c0.072-0.332,0.799-0.01,0.987-0.228c0.385-0.224,0.295-0.921,0.304-1.511
			c0.032-0.348,0.114-0.644,0.076-1.063c-0.401-0.951-1.783-0.421-2.886-0.455c-0.226,0.719-0.471,1.801-0.305,2.657
			c0.169,0.489,1.024,0.292,1.52,0.456c-0.141,0.332-0.688,0.057-0.987,0.076c-0.296-0.084-0.707-0.053-0.986-0.151
			c-2.284,0.078-4.283,0.004-6.528,0.151c0.117-1.248,0.063-2.465-0.076-3.646h3.112c-0.345,0.364-0.912,0.507-1.29,0.835
			c-0.44,0.244-0.861,0.506-1.14,0.911c0.249,0.134,0.535-0.245,0.76-0.379c0.354-0.073,0.479-0.381,0.835-0.455
			c0.423-0.438,1.096-0.625,1.67-0.912c0.378-0.022,0.696,0.013,0.986,0.077c1.283,0.007,2.456,0.126,3.796,0.076
			c0.614,0.145,1.45,0.068,1.975,0.304c0.106,0.298,0.23,0.579,0.305,0.911C25.05,38.159,24.894,38.989,24.813,39.896z
			 M18.967,36.176C19.077,36.129,18.958,36.084,18.967,36.176L18.967,36.176z M18.967,36.176c-0.528,0.154-1.019,0.349-1.366,0.683
			C18.084,36.659,18.659,36.552,18.967,36.176z M20.029,36.782C20.141,36.735,20.022,36.692,20.029,36.782L20.029,36.782z
			 M18.283,37.694c0.727-0.158,1.181-0.592,1.746-0.912c-0.438,0.02-0.592,0.32-0.987,0.38
			C18.827,37.379,18.442,37.422,18.283,37.694z M17.601,36.858C17.489,36.905,17.607,36.95,17.601,36.858L17.601,36.858z
			 M16.917,37.466C17.027,37.42,16.909,37.374,16.917,37.466L16.917,37.466z M16.842,37.542c0.063,0.014,0.07-0.03,0.075-0.076
			C16.854,37.452,16.845,37.496,16.842,37.542z M16.766,37.618c0.063,0.014,0.071-0.03,0.076-0.076
			C16.775,37.528,16.771,37.571,16.766,37.618z M15.932,38.226c0.346-0.134,0.612-0.348,0.834-0.607
			C16.417,37.752,16.15,37.966,15.932,38.226z M18.207,39.213c0.533-0.049,0.749-0.416,1.215-0.53
			c0.284-0.299,0.784-0.382,0.987-0.761c-0.56,0.022-0.766,0.399-1.216,0.53C18.909,38.75,18.442,38.866,18.207,39.213z
			 M15.932,38.226C15.614,38.151,15.915,38.452,15.932,38.226L15.932,38.226z M15.398,38.604c0.021,0.021,0.114-0.037,0.076-0.076
			C15.453,38.508,15.358,38.565,15.398,38.604z M18.207,39.213C18.097,39.26,18.214,39.304,18.207,39.213L18.207,39.213z
			 M17.067,41.034c-0.224-0.231-0.676-0.233-0.986-0.379c-0.697-0.039-1.223,0.093-1.746,0.229c-0.304,0.15-0.606,0.305-0.91,0.454
			c-0.266,0.166-0.443,0.417-0.76,0.532c-0.205,0.225-0.352,0.51-0.684,0.607c-0.004,0.223-0.173,0.28-0.305,0.379
			c-0.089,0.114-0.094,0.312-0.227,0.381c-0.007,0.119,0.036,0.289-0.076,0.303c0.108,1.512,0.291,2.948,0.684,4.177
			c0.286,0.623,0.975,0.848,1.441,1.291c0.589,0.297,1.328,0.443,2.126,0.531c0.277-0.053,0.553-0.105,0.911-0.076
			c1.209-0.209,2.098-0.736,2.81-1.441c0.101-0.281,0.253-0.508,0.455-0.684c-0.254-0.672,0.293-1.098,0.455-1.59
			c0.002-1.345-0.201-2.481-0.606-3.416c-0.256-0.579-0.92-0.751-1.366-1.14c-0.059-0.018-0.15-0.002-0.151-0.076
			C17.863,40.979,17.399,40.877,17.067,41.034z M13.652,45.361c-0.113-0.063-0.109-0.245-0.152-0.38
			C13.756,44.903,13.618,45.219,13.652,45.361z M13.729,45.666c0.041-0.117,0.079-0.006,0.075,0.076
			C13.765,45.859,13.726,45.746,13.729,45.666z M14.185,43.614c0.015-0.086,0.074-0.041,0.074,0
			C14.245,43.702,14.185,43.657,14.185,43.614z M15.854,41.489c-0.203,0.259,0.041,0.576,0.077,0.836
			C15.626,42.287,15.357,41.438,15.854,41.489z M16.233,45.439c-0.04-0.039,0.055-0.098,0.076-0.076
			C16.35,45.4,16.255,45.459,16.233,45.439z M16.992,48.322c0.034-0.109,0.066,0.008,0.152,0
			C17.126,48.42,16.994,48.4,16.992,48.322z M19.193,45.742c-0.233-0.057-0.146,0.207-0.379,0.152
			c0.068-0.16,0.118-0.34,0.229-0.455C19.177,45.457,19.215,45.568,19.193,45.742z M18.057,41.944
			c0.211,0.119,0.44,0.218,0.605,0.381c0.085,0.22,0.243,0.363,0.38,0.529c0.059,0.778,0.179,1.492,0.151,2.354
			c-0.257,0.1-0.438,0.271-0.684,0.381c-0.779-0.006-1.357-0.211-1.896-0.455c-0.171-0.26-0.355-0.506-0.532-0.76v-1.062
			c0.17-0.186,0.319-0.392,0.456-0.607c0.229-0.127,0.508-0.201,0.454-0.607c-0.038-0.062-0.078-0.123-0.075-0.229
			c0.158,0.045,0.245,0.158,0.379,0.229C17.618,42.116,17.705,41.899,18.057,41.944z"/>
	</g>
</g>
<g id="facebook_1_">
	<g>
		<path fill="#46C1AE" d="M50.471,36.326c1.025,0.028,1.992,0,2.68-0.3c0.391-0.818,0.557-1.854,0.619-2.989
			c-0.189-0.015-0.063-0.337-0.207-0.399c-0.029-0.201-0.277-0.194-0.309-0.397c-0.277-0.165-0.457-0.422-0.723-0.599
			c-0.727-0.162-1.441-0.334-2.164-0.498c-0.85,0.043-1.895-0.104-2.58,0.1c-2.619-0.04-3.998,1.12-5.259,2.393
			c-0.023,0.078-0.003,0.196-0.105,0.198c-0.573,1.587-0.125,3.621-0.203,5.581c0.099,0.436,0.107,0.958,0.203,1.395
			c-0.997,0.297-2.211,0.388-3.401,0.5c-0.317,0.324-0.178,1.089-0.206,1.692c0.085,0.583,0.278,1.06,0.413,1.595
			c0.211,0.193,0.597,0.396,0.825,0.498c0.064,0.029,0.07,0.083,0.104,0.101c0.506,0.27,1.45,0.008,2.268,0.102
			c-0.137,1.977,0.256,3.914,0,5.68c0.007,0.326,0.295,0.381,0.207,0.797c0,0.963-0.066,1.99,0.209,2.691
			c-0.287,0.453-0.497,0.98-0.415,1.793c0.122,0.016,0.114,0.156,0.104,0.299c-0.074,0.471,0.643,0.176,0.516,0.699
			c0.162,0.455-0.428,0.184-0.414,0.496v0.896c0.531,0.285,1.463,0.182,2.269,0.199c0.908-0.418,2.188-0.479,2.786-1.195
			c0.459,0.234,0.916-0.014,1.236-0.199c-0.018-0.314,0.273-0.334,0.205-0.697c-0.004-0.328-0.172-0.496-0.102-0.896v-2.891
			c-0.207-2.293-0.049-4.938-0.311-7.176c0.889-0.105,1.918-0.074,2.578-0.398c0.357-0.451,0.377-1.23,0.518-1.896
			c0.176-0.226,0.221-0.583,0.205-0.996c0.189-0.213,0.068-0.729,0.104-1.096c-0.141-0.596-0.168-1.3-0.824-1.391
			c-0.885-0.234-2.043,0.596-2.99,0.3c0.049-1.134-0.293-2.343,0-3.388C49.051,36.747,49.75,36.528,50.471,36.326z M46.652,41.109
			c0.117,0.254,0.254,0.485,0.414,0.698c0.078,0.021,0.203,0.002,0.205,0.101c1.191,0.056,2.199-0.069,3.096-0.299
			c0,0.998-0.271,1.733-0.518,2.491c-0.662,0.045-1.469,0.301-1.959,0.199c-0.275,0.164-0.371,0.506-0.619,0.697
			c-0.049,0.442,0.141,0.495,0,0.798c-0.201,0.137-0.057,0.611-0.205,0.797v1.494c0.084,0.281-0.146,0.26-0.105,0.498v3.488
			c-0.084,0.281,0.146,0.258,0.105,0.498v2.988c0.063,0.271-0.133,0.791,0.102,0.896c-0.068,0.363-0.412-0.021-0.822,0.1
			c-0.529,0.123-0.927,0.369-1.548,0.4c0.117-0.354,0.32-0.623,0.311-1.098c0.049-0.381-0.365-0.311-0.516-0.49
			c0.193-0.643,0.563-1.117,0.722-1.793c0.197-0.514,0.713-1.297,0.31-1.793c-0.521-0.105-0.521,0.293-0.826,0.398
			c-0.021,0.076-0.002,0.195-0.102,0.197c-0.023,0.078-0.004,0.197-0.104,0.199c0.01,0.121-0.151,0.063,0,0
			c0.021-0.078,0.002-0.195,0.104-0.199c0.022-0.076,0.002-0.195,0.102-0.197v-0.299c0.369-0.576,0.671-1.215,0.826-1.994
			c0.191-0.279,0.283-0.656,0.412-0.996c0.156-0.264,0.34-0.869,0.105-1.195c-0.517,0.033-0.796,0.295-0.931,0.697
			c-0.319-0.189,0.162-0.436,0.104-0.697c0.138-0.23,0.169-0.566,0.31-0.797c0.201-0.414,0.564-1.305,0-1.596
			c-0.438-0.023-0.612,0.207-0.724,0.498c-0.214,0.189-0.43,0.383-0.516,0.697c-0.373-0.07-0.144-0.727-0.206-1.098
			c-0.067-0.521,0.122-0.899,0-1.195c-0.561-0.799-2.026-0.104-3.197-0.299c-0.107-0.308-0.222-0.983-0.104-1.194
			c1.045-0.089,2.479,0.2,3.197-0.199c0.023-0.078,0.002-0.197,0.104-0.199c0.094-0.723-0.271-1-0.516-1.396
			c0.232-0.806,0.041-2.02,0.104-2.988c0.233-0.142,0.328-0.414,0.515-0.599c0.112-0.955,0.674-1.476,0.723-2.489
			c-0.273,0-0.607-0.056-0.619,0.198c-0.303-0.114-0.383,0.479-0.516,0.199c-0.111-0.541,0.246-0.626,0.31-0.997
			c0.599-0.418,1.212-0.82,1.856-1.195c1.74-0.244,4.648-0.449,6.086,0.198c0.051,0.616-0.287,0.854-0.207,1.496h-1.547
			c-1.092,0.239-1.986,0.672-2.99,0.997c-0.24,0.066-0.275,0.331-0.516,0.398c-0.037,0.396-0.225,0.646-0.311,0.996
			C46.471,38.562,46.684,39.72,46.652,41.109z"/>
	</g>
</g>
<g id="twitter_1_">
	<g>
		<path fill="#46C1AE" d="M86.823,38.967c-0.227-0.367-0.909-0.277-1.407-0.371h-1.112c0.143-0.354,0.344-0.646,0.521-0.963
			c0.056-0.438,0.254-0.734,0.224-1.26c0.129-0.168,0.176-0.418,0.295-0.594c0.104-0.145,0.242-0.477,0.074-0.667
			c-0.051-0.222-0.295-0.249-0.593-0.222c-0.088,0.035-0.169,0.078-0.222,0.148c-0.448,0.432-0.778,1.014-1.262,1.407
			c-0.009,0.009-0.062,0-0.074,0c-0.086,0.005-0.032,0.046-0.074,0.074c-0.146,0.098-0.258,0.151-0.369,0.223
			c-0.284,0.177-0.547,0.445-0.891,0.519c-0.529-0.211-1.156-0.325-1.853-0.369c-1.157,0.102-2.303,0.215-3.038,0.74
			c-0.91,0.351-1.477,1.043-2.148,1.631c-0.049,0.32-0.342,0.397-0.37,0.74c-0.005,0.045-0.013,0.088-0.073,0.074
			c0.043,0.241-0.051,0.346-0.074,0.52c-0.001,0.133,0.199,0.431,0,0.52c-0.822-0.119-1.484-0.63-2.148-0.964
			c-0.719-0.36-1.469-0.604-2.074-1.11c-0.717-0.322-1.26-0.816-1.778-1.334c-0.208-0.313-0.542-0.496-0.667-0.891
			c-0.379-0.164-0.175-0.912-0.74-0.889c-0.315-0.043-0.346,0.199-0.445,0.369c-0.069,0.228-0.36,0.232-0.37,0.52
			c-0.005,0.046-0.011,0.088-0.074,0.075c-0.17,1.089-0.526,1.991-0.519,3.26c0.129,0.415,0.35,0.737,0.593,1.038
			c-0.418,0.051-0.716,0.223-0.89,0.52c-0.061,1.072,0.377,1.646,0.742,2.297c0.133,0.383,0.352,0.685,0.592,0.963
			c0.018,0.229,0.207,0.287,0.297,0.445c0.019,0.105,0.123,0.125,0.148,0.223c-0.04,0.105,0.289,0.18,0.073,0.221
			c-0.413,0.131-1.017,0.07-1.259,0.371c-0.109,0.279-0.109,0.834,0,1.111c0.033,0.236,0.281,0.262,0.296,0.52
			c0.499,0.416,1.082,0.746,1.631,1.111c0.574,0.166,1.211,0.271,1.853,0.369c-0.103,0.344-0.338,0.553-0.594,0.742
			c-0.779,0.381-1.849,0.473-2.742,0.74c-0.555,0.037-0.955,0.229-1.556,0.223c-0.333,0.127-0.854,0.074-1.112,0.223
			c-0.121,0.068-0.102,0.096-0.222,0.221c-0.134,0.412,0.11,0.74,0.444,0.891c-0.006,0.252,0.219,0.275,0.371,0.371
			c0.088,0.184,0.254,0.289,0.445,0.369c0.543,0.469,1.268,0.76,1.926,1.113c0.83,0.182,1.648,0.375,2.521,0.518
			c0.896,0.117,1.901,0.125,2.815,0.223h0.963c0.512,0.133,1.23,0.055,1.854,0.074c0.096-0.102,0.322-0.074,0.52-0.074
			c0.521-0.27,1.195-0.385,1.631-0.74c0.574-0.24,0.988-0.643,1.557-0.891c0.866-0.764,1.938-1.322,2.52-2.369
			c0.205-0.189,0.351-0.438,0.444-0.74c0.265-0.156,0.386-0.453,0.593-0.666c0.404-0.41,0.707-0.924,1.037-1.4
			c0.319-0.496,0.576-1.055,0.891-1.557c-0.01-0.404,0.306-0.484,0.296-0.891c0.192-0.225,0.177-0.661,0.371-0.879
			c-0.033-0.256,0.028-0.416,0.073-0.594c0.047-1.281-0.047-2.423-0.297-3.408c0.588-0.154,1.182-0.301,1.631-0.592
			C86.535,40.041,87.009,39.645,86.823,38.967z M83.415,43.043c-0.152,0.858-0.615,1.409-1.038,2
			c0.06,0.379-0.104,0.539-0.073,0.889c-0.158,0.313-0.287,0.652-0.371,1.037c-0.203,0.268-0.332,0.607-0.519,0.891
			c-0.366,0.549-0.776,1.051-1.187,1.557c-0.377,0.561-0.911,0.965-1.334,1.482c-0.42,0.492-0.941,0.885-1.406,1.334
			c-0.475,0.17-0.891,0.395-1.26,0.666c-0.232,0.09-0.463,0.18-0.668,0.297c-0.176,0.145-0.498,0.145-0.668,0.289
			c-1.086,0.146-2.299,0.17-3.555,0.148c-1.031-0.105-2.115-0.16-3.039-0.371c-0.922-0.189-1.511-0.713-2.297-1.037
			c0.153-0.242,0.635-0.154,0.963-0.223c0.031-0.166,0.395-0.002,0.444-0.148c0.257,0.061,0.285-0.109,0.521-0.07
			c0.563-0.201,1.229-0.301,1.705-0.592c0.281-0.139,0.405-0.436,0.666-0.594c0.033-0.189,0.104-0.342,0.223-0.443
			c0.047-0.275,0.201-0.441,0.148-0.816c0.11-0.209,0.299-0.342,0.295-0.666c-0.074-0.146-0.127-0.316-0.295-0.371
			c-0.027-0.195-0.378-0.066-0.445-0.223c-0.254,0.033-0.416-0.029-0.592-0.074c-0.154-0.043-0.488,0.092-0.52-0.074
			c-0.842-0.021-1.301-0.43-1.854-0.738c0.432-0.264,1.032-0.354,1.334-0.742c0.516-0.076,1.058-0.129,1.111-0.666
			c0-0.718-0.771-0.662-1.333-0.816c-0.772-0.66-1.194-1.672-1.778-2.52c0.237-0.156,0.563-0.227,0.74-0.443
			c0.454,0.058,0.54-0.252,0.667-0.521c0.019-0.488-0.333-0.604-0.593-0.815c-0.259-0.209-0.475-0.461-0.667-0.74
			c-0.003-0.817-0.021-1.651,0.074-2.371c0.063-0.014,0.069,0.029,0.073,0.074c0.228,0.44,0.56,0.774,0.815,1.186
			c0.532,0.357,0.925,0.854,1.556,1.111c0.453,0.414,1.108,0.621,1.558,1.039c0.601,0.263,1.157,0.569,1.704,0.889
			c0.669,0.193,1.056,0.673,2.001,0.593c0.198-0.099,0.394-0.198,0.593-0.297c0.258-0.456-0.059-1.079,0.146-1.63
			c0.256-0.659,0.797-1.031,1.261-1.48c0.29-0.156,0.555-0.336,0.815-0.52c0.346-0.098,0.674-0.217,0.963-0.37
			c0.377-0.019,0.713-0.077,1.037-0.147h1.26c0.244,0.051,0.476,0.119,0.74,0.147c0.209,0.138,0.381,0.313,0.666,0.371
			c0.789,0.692,1.271,1.696,1.409,3.039C83.292,42.045,83.468,42.434,83.415,43.043z M83.711,37.41
			c-0.129,0.34-0.229,0.707-0.593,0.814c-0.018-0.104-0.122-0.125-0.146-0.221c-0.013-0.209,0.209-0.187,0.295-0.297
			C83.429,37.623,83.513,37.459,83.711,37.41C83.704,37.32,83.819,37.364,83.711,37.41z M78.228,40.448
			c0.162,0.136,0.283,0.31,0.519,0.371c0.101,0.222,0.313,0.327,0.595,0.37c0.047-0.15,0.346-0.049,0.369-0.223
			c0.174-0.022,0.166-0.229,0.297-0.297c-0.019-0.55-0.13-1.006-0.371-1.332C78.878,38.914,77.96,39.377,78.228,40.448z"/>
	</g>
</g>
</svg>
