<svg id="Layer_1" data-name="Layer 1" xmlns="http://www.w3.org/2000/svg" width="25" height="48.1" viewBox="0 0 25 48.1"><defs><style>.cls-1{fill:#ccc;}.cls-2{fill:#63d1bb;}</style></defs><title>tel-sprite</title><g id="UrwUhy"><path class="cls-1" d="M17.5,24H16.4A17.54,17.54,0,0,1,5.2,18.3,18.18,18.18,0,0,1,0,6.8V5.5A3.33,3.33,0,0,1,1.1,3.4,4.15,4.15,0,0,1,3.6,1.9,2.79,2.79,0,0,1,5.8,3a7.8,7.8,0,0,1,.8,2.3,6.16,6.16,0,0,1,.6,2.6C7,9.1,5.4,9.6,4.9,10.5a16.26,16.26,0,0,0,7.5,8.2c.9-.5,1.6-1.8,2.8-1.9a7,7,0,0,1,1.4.3,5,5,0,0,1,1.3.5c.7.3,2,.6,2.4,1.2a3.68,3.68,0,0,1,.6,2.2C20.7,22.2,18.7,23.6,17.5,24Z"/></g><path class="cls-1" d="M12.6,1.6A10.71,10.71,0,0,1,23.4,12.2H25A12.29,12.29,0,0,0,12.6,0Z"/><path class="cls-1" d="M12.6,9.2v1.5A1.37,1.37,0,0,1,14,12.1h1.6A3,3,0,0,0,12.6,9.2Z"/><path class="cls-1" d="M12.6,6.2a6,6,0,0,1,6.1,6h1.6a7.54,7.54,0,0,0-7.7-7.5Z"/><g id="UrwUhy-2" data-name="UrwUhy"><path class="cls-2" d="M17.5,48.1H16.4A17.54,17.54,0,0,1,5.2,42.4,18.71,18.71,0,0,1,0,30.8V29.5a3.33,3.33,0,0,1,1.1-2.1,4.15,4.15,0,0,1,2.5-1.5A2.79,2.79,0,0,1,5.8,27a7.8,7.8,0,0,1,.8,2.3A8.57,8.57,0,0,1,7.1,32c-.2,1.2-1.8,1.7-2.2,2.5a16.26,16.26,0,0,0,7.5,8.2c.9-.5,1.6-1.8,2.8-1.9a7,7,0,0,1,1.4.3,5,5,0,0,1,1.3.5c.7.3,2,.6,2.4,1.2a3.68,3.68,0,0,1,.6,2.2C20.7,46.3,18.7,47.6,17.5,48.1Z"/></g><path class="cls-2" d="M12.6,25.6A10.71,10.71,0,0,1,23.4,36.2H25A12.21,12.21,0,0,0,12.6,24.1Z"/><path class="cls-2" d="M12.6,33.3v1.5A1.37,1.37,0,0,1,14,36.2h1.6A2.93,2.93,0,0,0,12.6,33.3Z"/><path class="cls-2" d="M12.6,30.2a6,6,0,0,1,6.1,6h1.6a7.54,7.54,0,0,0-7.7-7.5Z"/></svg>